<svg xmlns="http://www.w3.org/2000/svg" viewBox="0 0 94.97 133.57"><g data-name="レイヤー 2"><path d="M88.48 3.43h1.63a6.41 6.41 0 000 .66 14.4 14.4 0 01-.14 2c-.29 2.18-1.68 3.76-4.14 4.74a7 7 0 00-.44-.77 5.48 5.48 0 00-.51-.6 6.72 6.72 0 001.5-.62 4 4 0 002-2.7 11 11 0 00.16-2 4.73 4.73 0 00-.06-.71zM94.16 1l.84.9a2.41 2.41 0 00-.23.36l-.25.49a7.75 7.75 0 01-1 1.53A8 8 0 0192 5.69c-.23.15-.48.31-.76.47a4.42 4.42 0 00-.57-.67c-.14-.13-.31-.26-.52-.42A5.44 5.44 0 0093 2.44h-6.29a13.21 13.21 0 00-1.63.07V1a10.68 10.68 0 001.66.09h7.05a1.63 1.63 0 00.37-.09zm-5.27 11.82h1.73a13.92 13.92 0 00-.08 1.8v6.59a14 14 0 00.08 1.8h-1.73q0-.33.06-.69v-8.95a4 4 0 00-.06-.55zm-.3 22.5h-1.65A12.63 12.63 0 0087 34v-7.71a9.79 9.79 0 00-.07-1.22h1.65a4.7 4.7 0 000 .5 5.08 5.08 0 000 .71v2.28a25 25 0 013 1.26c1 .47 1.78.9 2.44 1.27l-.83 1.42c-.37-.26-.85-.55-1.42-.87-.89-.49-1.83-1-2.83-1.43a4.47 4.47 0 01-.42-.2 6.09 6.09 0 010 .82V34a10.86 10.86 0 00.07 1.32zm-1.27 2.15l1.56-.26a12.3 12.3 0 00.25 1.56 20.82 20.82 0 00.55 2.23c.56-.22 1.47-.53 2.71-.93a6.55 6.55 0 00.84-.31l.53 1.51a16.78 16.78 0 00-1.7.42 25.81 25.81 0 00-2.79.95 4.81 4.81 0 00-1.68 1.07 1.44 1.44 0 00-.42 1 1 1 0 00.29.72 1.86 1.86 0 001 .43 8.35 8.35 0 001.48.1 16.44 16.44 0 003.06-.31 5.8 5.8 0 00.82-.21l.12 1.64c-.17 0-.49 0-1 .08a27.75 27.75 0 01-2.81.18 12 12 0 01-2.08-.16 3.79 3.79 0 01-1.39-.5 2.1 2.1 0 01-1-1.47 2.94 2.94 0 010-.51 2.66 2.66 0 01.48-1.53 6 6 0 012.22-1.67 31.1 31.1 0 01-.81-3.25 5.4 5.4 0 00-.23-.78zm1.16 15.16h1.63a6.41 6.41 0 000 .66 14.4 14.4 0 01-.14 2c-.34 2.16-1.73 3.71-4.19 4.71a7 7 0 00-.44-.77 6.62 6.62 0 00-.51-.6 6.72 6.72 0 001.5-.62 4 4 0 002-2.7 11 11 0 00.16-2 4.73 4.73 0 00-.01-.68zm5.68-2.44l.81.91a2.41 2.41 0 00-.23.36l-.25.49a7.75 7.75 0 01-1 1.53A8 8 0 0192 54.89c-.23.15-.48.31-.76.47a4.42 4.42 0 00-.57-.67c-.14-.13-.31-.26-.52-.42A5.44 5.44 0 0093 51.64h-6.29a13.21 13.21 0 00-1.63.07v-1.5a10.68 10.68 0 001.66.09h7.05a1.63 1.63 0 00.37-.11zM88.89 62h1.73a13.92 13.92 0 00-.08 1.8v6.59a14 14 0 00.08 1.8h-1.73q0-.33.06-.69v-8.93a4 4 0 00-.06-.57zm1.83 17.09a9.53 9.53 0 01-.22 1.7 5.25 5.25 0 01-.85 1.88 6.2 6.2 0 01-2.9 2 4.82 4.82 0 00-.44-.74 7.28 7.28 0 00-.53-.59 5.87 5.87 0 002-1 3.57 3.57 0 001-1.32 5.54 5.54 0 00.38-2h-2.95a13.44 13.44 0 00-1.52.06v-1.36a11.28 11.28 0 001.55.08h7a11.22 11.22 0 001.54-.08v1.43a13.44 13.44 0 00-1.52-.06zm-4.82-2.94v-1.46a9.7 9.7 0 001.55.08h4.61a9.62 9.62 0 001.55-.08v1.46c-.28 0-.79-.05-1.52-.06h-4.66c-.74.01-1.24.03-1.53.06zm7.58 11.31l1.23.87a4.89 4.89 0 00-.41.4 14.87 14.87 0 01-2.24 2v4.08a8.59 8.59 0 00.07 1.15h-1.56a8.21 8.21 0 00.06-1.13v-3.27a18.3 18.3 0 01-3.4 1.53c-.11-.25-.21-.45-.31-.63s-.24-.37-.43-.62a13.8 13.8 0 002.85-1.09 14.35 14.35 0 002.48-1.59 7.61 7.61 0 001.66-1.7zm-7.94 21.43a5 5 0 00-.43-.72 5.85 5.85 0 00-.54-.62c.35-.14.64-.26.85-.37a8 8 0 00.76-.42 11.8 11.8 0 004.82-5.41l.08-.19v-.13l-4 .07a11.53 11.53 0 00-1.31.1v-1.53a7.41 7.41 0 001.19.07h.16l4.23-.06h.68a3.13 3.13 0 00.38-.1l.79.82a1.84 1.84 0 00-.38.63 16.54 16.54 0 01-1.82 3.29 20.63 20.63 0 012.21 1.74c.23.2.81.76 1.76 1.67L93.8 109a18.06 18.06 0 00-1.68-1.82 22.8 22.8 0 00-2-1.74 14.22 14.22 0 01-2.28 2.08 17.1 17.1 0 01-2.3 1.37zm3.05 12.53h-1.65a12.63 12.63 0 00.07-1.34v-7.68a9.84 9.84 0 00-.07-1.23h1.65a4.7 4.7 0 000 .5 5.08 5.08 0 000 .71v2.28a26.76 26.76 0 013 1.26c1 .48 1.78.9 2.44 1.27l-.83 1.42c-.37-.26-.85-.55-1.42-.87-.89-.49-1.83-1-2.83-1.42a4 4 0 01-.42-.21 6.09 6.09 0 010 .82v3.16a10.86 10.86 0 00.06 1.33zm2.1 4.07a17.35 17.35 0 01-1.25 4.9 5.26 5.26 0 01-1.16 1.77 1.91 1.91 0 01-2.5.05 2.66 2.66 0 01-.77-1 4.52 4.52 0 01-.36-1.85 5.23 5.23 0 01.63-2.54 4.88 4.88 0 011-1.27 5.41 5.41 0 013.81-1.37 5.75 5.75 0 012.32.46 3.8 3.8 0 011.88 1.7 4.48 4.48 0 01.56 2.28 4.82 4.82 0 01-.88 2.9 4.54 4.54 0 01-1.81 1.48 8.24 8.24 0 01-2.11.59 5.52 5.52 0 00-.33-.8 6.22 6.22 0 00-.4-.6 6.75 6.75 0 002.39-.66 3 3 0 001.23-1.25 3.64 3.64 0 00.44-1.75 2.93 2.93 0 00-.77-2.07 2.84 2.84 0 00-1.22-.82 3.51 3.51 0 00-.7-.15zm-1.47 0a3.29 3.29 0 00-1.55.58 3.89 3.89 0 00-1.35 1.76 4 4 0 00-.28 1.48 2.53 2.53 0 00.28 1.28 1 1 0 00.51.46.44.44 0 00.15 0c.4 0 .81-.52 1.24-1.54a14.63 14.63 0 00.8-2.75c.09-.38.15-.76.2-1.25zM43.76 1.87h-.36a9.63 9.63 0 00-1 0V.65a7.76 7.76 0 001.09.06h1.78a7.59 7.59 0 001.04-.06v1.27a8.83 8.83 0 00-1 0H45v2.3h.36a4.77 4.77 0 00.76 0v1.16a5.92 5.92 0 00-.76 0H45v2.19l1.3-.6V8.2c-.46.25-.9.47-1.33.66s-1.09.44-1.85.7l-.62.24-.34-1.37a11.64 11.64 0 001.6-.43V5.34h-.44a6.25 6.25 0 00-.83 0V4.17a6.58 6.58 0 00.85 0h.42zm4.18 5.42h-1.3V.41a10.78 10.78 0 001.18.05h3.66a10.54 10.54 0 001.14-.05 11.83 11.83 0 000 1.21V6a12.05 12.05 0 00.05 1.29H51v2.39c0 .09 0 .15.08.17a2.16 2.16 0 00.48 0c.32 0 .51-.05.57-.13a1.19 1.19 0 00.08-.44c0-.4.06-.73.06-1a6.52 6.52 0 00.59.29 5.21 5.21 0 00.54.2 8.91 8.91 0 01-.21 1.5.91.91 0 01-.36.51 1.57 1.57 0 01-.68.2 6 6 0 01-.81 0 5.13 5.13 0 01-1.14.02.58.58 0 01-.37-.31.54.54 0 010-.19 1.8 1.8 0 010-.31v-2.9h-.63c-.07.36-.12.62-.16.77a4.08 4.08 0 01-.16.5 4.77 4.77 0 01-3.3 2.76 4 4 0 00-.75-1.11A4.4 4.4 0 0047.19 9a2.9 2.9 0 00.75-1.71zm0-5.7v.82h3.4v-.82zm0 1.87v.8h3.4v-.8zm0 1.85v.86h3.4v-.86zm-.56 8.55h4.35a11.49 11.49 0 001.45-.07v1.39a13.22 13.22 0 00-1.45-.06H46.8a14.52 14.52 0 01-1.57 2.5v4.43a8.31 8.31 0 00.06 1.39h-1.47a9.68 9.68 0 00.08-1.39v-3a11.41 11.41 0 01-.91.81 3.93 3.93 0 00-.91-1.18 10.69 10.69 0 001.81-1.6v-.62h.61a9.93 9.93 0 00.86-1.32h-1.5a12.89 12.89 0 00-1.44.06v-1.41a11.18 11.18 0 001.44.07h2.06a6.26 6.26 0 00.47-1.6l1.5.29c0 .1-.11.26-.19.48s-.22.6-.32.83zm2.47 3.86h1.5a8.28 8.28 0 001.28-.07V19a10.84 10.84 0 00-1.28-.06h-1.5v2.82h1.9a11 11 0 001.34-.06v1.37a10.81 10.81 0 00-1.35-.07h-4.8a9.74 9.74 0 00-1.34.07V21.7a11.44 11.44 0 001.33.06h1.59v-2.82h-1.25A11 11 0 0046 19v-1.35a8.51 8.51 0 001.29.07h1.26V17a7.52 7.52 0 00-.07-1.25h1.47a7.16 7.16 0 00-.1 1.25zm-6.29 10.02V26.2a9.42 9.42 0 00-.07-1.39h1.38a9.78 9.78 0 00-.07 1.39v1.54h.27a4.63 4.63 0 00.8 0v1.25H44.8v3.26l1.14-.54v1.27a24.31 24.31 0 01-3 1.33 5.84 5.84 0 00-.62.26l-.26-1.37a7.25 7.25 0 001.43-.44V28.9h-.27a5.57 5.57 0 00-.94.06v-1.28a5.52 5.52 0 00.93.06zm4.31 2v4.13a.33.33 0 00.12.3 1.57 1.57 0 00.56.13h1.3a6.39 6.39 0 001.75-.13.53.53 0 00.31-.31 4.12 4.12 0 00.14-1.3c.17.07.39.15.65.23a5.12 5.12 0 00.66.16 5.91 5.91 0 01-.24 1.6 1.16 1.16 0 01-.53.65 2.91 2.91 0 01-1.07.26q-.68.06-2 .06a8.47 8.47 0 01-2.22-.19 1 1 0 01-.6-.44 1.27 1.27 0 01-.13-.65V30.1l-.24.07a5.35 5.35 0 00-.73.28l-.29-1.32a6.79 6.79 0 001.15-.25h.11V27.2a10.54 10.54 0 00-.06-1.27h1.4a10.61 10.61 0 00-.06 1.21v1.31l1.15-.36V26a8.12 8.12 0 000-1.21h1.39a9.54 9.54 0 00-.1 1.21v1.7l1.71-.53c.36-.12.69-.24 1-.37 0 .39 0 .81-.06 1.26a24.77 24.77 0 01-.27 3.29 1.16 1.16 0 01-.27.58 1.52 1.52 0 01-1.09.31h-.56a3.43 3.43 0 00-.31-1.24 3.66 3.66 0 00.66.08c.2 0 .32 0 .36-.11a10.64 10.64 0 00.21-2.49l-1.38.44v3a8.38 8.38 0 00.07 1.19H49a8.33 8.33 0 000-1.25v-2.54zm-1.99 8.87a5 5 0 00.49-1.49l1.57.17a4.27 4.27 0 00-.27.56c-.16.38-.25.58-.27.62a.58.58 0 010 .11h.76a16.05 16.05 0 003.14-.4l.08 1.36-.95.11c-1 .12-2.23.2-3.6.23a6.16 6.16 0 01-1.11 1.6l.24-.18.27-.17a2.92 2.92 0 011.43-.36 1.85 1.85 0 011.2.37 1.5 1.5 0 01.51.9l.16-.06 1.68-.6.66-.23.23-.12.57 1.38a4.32 4.32 0 00-.54.11 11.48 11.48 0 00-1.32.38l-1.15.4h-.13v1.44a6.12 6.12 0 000 .66h-1.39a9.18 9.18 0 00.07-1.42v-.26a7.26 7.26 0 00-1.16.63 1.25 1.25 0 00-.62 1 .67.67 0 00.28.57 1.45 1.45 0 00.56.23 7 7 0 001.19.08 12.68 12.68 0 002.8-.29 5.19 5.19 0 00.73-.22l.12 1.55a4.42 4.42 0 00-.56 0 20.48 20.48 0 01-3.07.21 10 10 0 01-1.63-.12 3.47 3.47 0 01-1.05-.38 1.66 1.66 0 01-.8-1.04 1.84 1.84 0 010-.41 2.06 2.06 0 01.52-1.33 4.93 4.93 0 011.7-1.28c.24-.13.54-.27.88-.42a.64.64 0 00-.72-.63 4 4 0 00-2.46 1.23 6 6 0 00-1 1.09l-1.1-1.08a6.2 6.2 0 00.96-1.11 13.76 13.76 0 001.45-2l.09-.16h-2.24v-1.36a14.93 14.93 0 002.67.15zm-3.6 16.56v-1.3a6.28 6.28 0 001 .06h.93a8 8 0 00.92 0 10.93 10.93 0 00-.13 1.26v2.48a2 2 0 00.56.66 2.23 2.23 0 00.77.36 8 8 0 001.71.15 47.64 47.64 0 005.45-.25c-.11.33-.18.58-.23.76s-.09.43-.13.72h-.63q-2.13.06-3.66.06a16.7 16.7 0 01-2.47-.13 3.19 3.19 0 01-1.37-.6 3.61 3.61 0 01-.58-.59 11.48 11.48 0 01-1.21 1l-.54.44-.67-1.37a4.51 4.51 0 00.72-.41 8.82 8.82 0 001-.77v-2.59h-.69q-.39.02-.75.06zm.13-4.83l1-.89c.34.3.68.62 1 1a12.09 12.09 0 011.07 1.21l-1 1a13.9 13.9 0 00-1-1.2 12 12 0 00-1.07-1.12zm4.1 3.37a21 21 0 011 2c.29.7.56 1.42.81 2.17l-1.32.4a22.21 22.21 0 00-1.82-4.61c.29-.56.57-1.15.82-1.77a18.45 18.45 0 00.75-2.18 2.66 2.66 0 00.07-.39l1.44.39c-.09.16-.31.7-.66 1.63-.19.51-.39 1-.59 1.4zm1.09-.05A18.31 18.31 0 0048.77 51a11 11 0 00.49-1.63l1.39.41-.14.32-.09.23c-.23.6-.5 1.22-.8 1.87s-.49 1-.72 1.43c.39.71.71 1.32 1 1.85a24.46 24.46 0 01.93 2.27l-1.33.41q-.47-1.5-.9-2.55c-.31-.61-.6-1.28-1-1.95zm3.78 0a26.84 26.84 0 012.1 4l-1.36.47c-.28-.77-.6-1.56-1-2.35s-.54-1.14-.72-1.46l-.4-.69A21.89 21.89 0 0051.6 50a3.57 3.57 0 00.17-.66l1.43.43a3.71 3.71 0 00-.24.52c-.29.73-.54 1.29-.74 1.7s-.42.84-.84 1.65zm-1.87 16.96a3.21 3.21 0 00.79-.4 1.49 1.49 0 00.5-.64 1.58 1.58 0 00.14-.65 1.31 1.31 0 00-.36-.94 2.66 2.66 0 00-2-.66 6.8 6.8 0 00-2.77.59 8.28 8.28 0 00-2.18 1.43l-.82-1.29a12 12 0 001.68-1.13 34.08 34.08 0 003.6-3.12l.11-.11.1-.11h-.24c-.86.06-1.8.12-2.83.17-.42 0-.73 0-.91.07l-.06-1.45a10.31 10.31 0 001.41.08c1.15 0 2.36 0 3.65-.15a2.49 2.49 0 00.75-.15l.74 1.06a3.72 3.72 0 00-.63.48c-.87.81-1.5 1.37-1.88 1.69a19.18 19.18 0 01-1.81 1.29l.62-.24a5.42 5.42 0 011.9-.32 3.77 3.77 0 012.51.79 2.35 2.35 0 01.86 1.91 2.89 2.89 0 01-.62 1.83 3.91 3.91 0 01-2 1.23 6.49 6.49 0 01-2 .28 3.94 3.94 0 01-2.33-.55 1.63 1.63 0 01-.72-1.38 1.53 1.53 0 01.74-1.23 2.26 2.26 0 011.43-.44 2.54 2.54 0 012.08 1 3.87 3.87 0 01.55 1.06zm-1.3.35a2.63 2.63 0 00-.33-.75 1.17 1.17 0 00-1-.52.73.73 0 00-.56.19.52.52 0 00-.15.38.56.56 0 00.25.48 2 2 0 001.16.27 3.85 3.85 0 00.63-.02zM7.59 5.43a7.4 7.4 0 01-.44-1.06 10.69 10.69 0 01-.46-2.15H2.38a18.76 18.76 0 01-.35 4A6 6 0 011.29 8a3.67 3.67 0 00-1.08-.86 4.94 4.94 0 00.7-1.7 14.06 14.06 0 00.24-2.86v-1.5h5.44V.56c0-.18 0-.39-.07-.54h1.31a6.21 6.21 0 000 .69v.37h1.36a9.41 9.41 0 00-.88-.51L9.19 0a7.22 7.22 0 011.13.76l-.55.37a9.18 9.18 0 001.29-.07v1.23a11.54 11.54 0 00-1.46-.07H7.91a8.83 8.83 0 00.51 2.15 6 6 0 00.81-1.69l1.12.46-.3.58A10.57 10.57 0 019 5.48a3.12 3.12 0 00.5.62 2.34 2.34 0 00.31.24.3.3 0 00.14.06c.08 0 .16-.13.24-.4a7.66 7.66 0 00.17-1 4.84 4.84 0 001 .75 5.55 5.55 0 01-.45 1.38 1 1 0 01-.88.58 1.83 1.83 0 01-1.14-.51 4.62 4.62 0 01-.71-.78 9.5 9.5 0 01-1.43 1.21A4.29 4.29 0 006.13 7h-2.7a5.6 5.6 0 00-.76 0V5.07a6.41 6.41 0 000-.73 5.32 5.32 0 00.77 0h2.21a5.5 5.5 0 00.77 0 6.09 6.09 0 000 .72v1.41a7.67 7.67 0 001.17-1.04zm-4.82 2.7a10.86 10.86 0 01-.52 1.39 4.78 4.78 0 01-.55.91l-.38.45-1.07-.78c.29-.3.49-.53.61-.68a4.41 4.41 0 00.56-1.08c.05-.13.12-.37.23-.71zm3.84-4.26a7.32 7.32 0 00-.74 0h-2.5a6.73 6.73 0 00-.75 0V2.78a7 7 0 00.75 0h2.5a7 7 0 00.74 0zm2.18 5.29a3.5 3.5 0 01-.27 1.22 1 1 0 01-.67.49 9.75 9.75 0 01-2.21.13 9.49 9.49 0 01-1.72-.1.91.91 0 01-.64-.36 1.1 1.1 0 01-.12-.54V8.57a4.73 4.73 0 00-.06-.85h1.36a3.51 3.51 0 00-.06.7v1.2a.23.23 0 00.15.24 7.81 7.81 0 001.17.05 6.45 6.45 0 001.51-.1.38.38 0 00.26-.23 2.69 2.69 0 00.09-.84 5.13 5.13 0 001.21.42zm-5-3.83V6h1.53v-.67zm3.46 3.28l-.9.78a8.19 8.19 0 00-.71-.78 10.42 10.42 0 00-.84-.69l.85-.61a9.73 9.73 0 011.6 1.3zm1.33-.37l1.07-.46a12.56 12.56 0 011.55 2.38l-1.12.62c-.2-.44-.44-.89-.7-1.36a13.57 13.57 0 00-.8-1.18zM2.9 13.83h-.12c-.59 0-1.24.09-1.94.12a4.14 4.14 0 00-.42-1 24.16 24.16 0 004-.31 5 5 0 001.21-.33l.71 1-.3.05-.35.06c-.49.09-1 .18-1.64.26v.67h1.26a7.15 7.15 0 001.11-.05v1.08a5 5 0 00-.86 0H4.07v.51h2.18V19a6.08 6.08 0 000 .61H4.07v.53h1a10.45 10.45 0 001.13 0v1.06a4.24 4.24 0 00-.84-.06H4.07v.59c.5 0 1.21-.13 2.15-.26V22a8.29 8.29 0 00.66-1.26 8.58 8.58 0 00.56-2 21.89 21.89 0 00.24-2.68 7.38 7.38 0 00-1 .05v-1.3a6.19 6.19 0 00.86 0h.18v-.88a9.45 9.45 0 00-.08-1.52H9v2.4h1a11.09 11.09 0 001.13 0c0 .31-.06 1.07-.08 2.26a21.33 21.33 0 01-.51 5.49 1 1 0 01-.54.56 2.71 2.71 0 01-1 .14h-.95a4.25 4.25 0 00-.27-1.3 9 9 0 01-1 1.58 3.34 3.34 0 00-.93-1l-.32.05c-1.31.19-2.77.35-4.4.47-.21 0-.45 0-.7.08l-.2-1.27h.63c.47 0 1.07 0 1.81-.07h.23v-.67H1.67c-.45 0-.83 0-1.13.05v-1.1a11 11 0 001.14.05H2.9v-.53H.73a10.19 10.19 0 000-1.14v-1.52a9.5 9.5 0 000-1.09h2.18v-.51H1.44a8.71 8.71 0 00-1.12.05v-1.1a8.67 8.67 0 001.12.06H2.9zm0 3h-1v.5h1zm0 1.37h-1v.54h1zm1.17-1.37v.5h1v-.5zm0 1.37v.54h1v-.54zm3.71 3.76a7.49 7.49 0 001 .12.61.61 0 00.51-.17 5.92 5.92 0 00.37-2.24c0-.68.06-1.31.08-1.9V16.1H8.9a21.71 21.71 0 01-.33 3.39 10.62 10.62 0 01-.79 2.43zm-4.46 3.21l1.56-.26a12.3 12.3 0 00.25 1.56 20 20 0 00.55 2.2c.56-.21 1.47-.52 2.71-.92a8.66 8.66 0 00.84-.31L9.76 29a16.78 16.78 0 00-1.7.42 25.81 25.81 0 00-2.79.95 4.81 4.81 0 00-1.68 1.07 1.42 1.42 0 00-.42 1 1 1 0 00.29.72 1.86 1.86 0 001 .43 8.35 8.35 0 001.48.1A16.44 16.44 0 009 33.35a5.8 5.8 0 00.82-.21l.12 1.63-1 .09a27.75 27.75 0 01-2.8.14 12 12 0 01-2.08-.16 3.79 3.79 0 01-1.39-.5 2.1 2.1 0 01-1-1.47 2.94 2.94 0 010-.51 2.66 2.66 0 01.48-1.53 6 6 0 012.17-1.63 30.75 30.75 0 01-.81-3.26 5.52 5.52 0 00-.19-.77zM3.7 42.1h-.8v-.52a13.74 13.74 0 01-2.1 1.2 5.08 5.08 0 00-.72-1.1 11.2 11.2 0 001.77-.83l.53-.34a8.71 8.71 0 00-1.69-1.57l1-.72c.13.1.26.2.38.31v-1.25a6.47 6.47 0 001 .06h2.21a7.93 7.93 0 001-.05 3.27 3.27 0 00.16.47 4.69 4.69 0 00.59.84 6.17 6.17 0 001-1.28l1.1.63a2.3 2.3 0 00-.2.22l.07.06a9.32 9.32 0 01-1.09 1.16c.25.22.49.41.71.57a10.9 10.9 0 00.81-.84 4.47 4.47 0 00.43-.6l1.11.62a4.59 4.59 0 00-.34.38 12.35 12.35 0 01-1.13 1.09 11.34 11.34 0 001.91.91 3.43 3.43 0 00-.35.56c-.07.13-.18.34-.31.64a15.56 15.56 0 01-2-1.09v.52H7.6v1.29h1.9a8.24 8.24 0 001.26-.07v1.23a12 12 0 00-1.26-.07H7.62v2.05c0 .03.39.13.9.13a2.45 2.45 0 00.93-.12.42.42 0 00.24-.3 5.57 5.57 0 00.13-1 3.93 3.93 0 001.29.43 7.23 7.23 0 01-.19 1.28 1.19 1.19 0 01-.45.65 1.56 1.56 0 01-.7.22 9.6 9.6 0 01-1.39.07 4.51 4.51 0 01-1.57-.18.72.72 0 01-.36-.35 1.15 1.15 0 01-.08-.51v-2.37H4.82a4.09 4.09 0 01-.75 1.73 4.64 4.64 0 01-1.52 1.28 11.9 11.9 0 01-1.27.57 4.24 4.24 0 00-.85-1.18 7.77 7.77 0 001.19-.41 3.17 3.17 0 001.88-2H2a8.74 8.74 0 00-1.3.08v-1.28a8.39 8.39 0 001.3.07h1.69v-.36zm-1.63-3.57a11.59 11.59 0 011.31 1.23 8.89 8.89 0 001.17-1.28H2.79a6.39 6.39 0 00-.72.05zM3.77 41h4.06a11.6 11.6 0 01-1.06-1 11.14 11.14 0 01-1-1.19 10 10 0 01-2 2.19zM5 42.1v1a2.44 2.44 0 010 .27h1.37V42.1zM3.73 56.83H1.71a10.78 10.78 0 00.05-1.28v-4.34a14.14 14.14 0 00-.05-1.49 10.22 10.22 0 001.29.05h5.54a10.3 10.3 0 001.26-.05c0 .19-.05.69-.06 1.49v4.38a10.16 10.16 0 00.06 1.28 12.71 12.71 0 00-1.27 0h-1v1.85c0 .15 0 .25.13.29a3 3 0 00.92.08 3.49 3.49 0 001.14-.11.45.45 0 00.2-.21 5.29 5.29 0 00.18-1.46 5.58 5.58 0 001.23.5 8.49 8.49 0 01-.18 1.33 1.5 1.5 0 01-.36.73 1.31 1.31 0 01-.69.32 9.19 9.19 0 01-1.51.09 8.36 8.36 0 01-1.68-.11.89.89 0 01-.57-.36 1.29 1.29 0 01-.11-.59v-2.39h-1.1c-.3 1.9-1.69 3.17-4.19 3.67a4.45 4.45 0 00-.69-1.19 6.26 6.26 0 002.34-.79 2.47 2.47 0 001.14-1.69zM3.06 51v.79h5.42V51zm0 1.91v.81h5.42v-.81zm0 1.93v.85h5.42v-.85zM6.69 64a17.35 17.35 0 01-1.25 4.9 5.26 5.26 0 01-1.16 1.77 1.87 1.87 0 01-1.28.48 1.87 1.87 0 01-1.23-.44 2.66 2.66 0 01-.77-1 4.52 4.52 0 01-.36-1.85 5.23 5.23 0 01.63-2.54 4.88 4.88 0 011-1.27 5.41 5.41 0 013.81-1.37 5.75 5.75 0 012.32.46 3.8 3.8 0 011.88 1.7 4.48 4.48 0 01.56 2.28A4.82 4.82 0 0110 70a4.54 4.54 0 01-1.81 1.49 8.24 8.24 0 01-2.11.59 5.52 5.52 0 00-.33-.8 6.22 6.22 0 00-.4-.6A6.75 6.75 0 007.71 70a3 3 0 001.23-1.25A3.64 3.64 0 009.38 67a2.93 2.93 0 00-.77-2.07 2.84 2.84 0 00-1.22-.82 3.51 3.51 0 00-.7-.11zm-1.47 0a3.29 3.29 0 00-1.55.58 3.89 3.89 0 00-1.35 1.76A4 4 0 002 67.83a2.53 2.53 0 00.28 1.28 1 1 0 00.51.46.44.44 0 00.15 0c.4 0 .81-.52 1.24-1.54A14.63 14.63 0 005 65.31c.11-.43.17-.86.22-1.31zM9 76.41H6.57l-.12.2a7.67 7.67 0 01-.85 1.14 6 6 0 01-.42.44 3.22 3.22 0 00-1-.77 7 7 0 00.61-.62H2.68v1.27h1.2a7.44 7.44 0 001 0v1.36a23 23 0 01-.29 4.29 1.46 1.46 0 01-.37.75 1.32 1.32 0 01-.68.29 4.45 4.45 0 01-.55 0h-.63A3.9 3.9 0 002 83.39a3.5 3.5 0 00.82.11c.23 0 .37-.06.42-.19A4.5 4.5 0 003.43 82c.06-.85.09-1.7.1-2.54v-.26h-.95A10.44 10.44 0 01.94 85 3.87 3.87 0 000 83.84a6.83 6.83 0 001.2-3.19 28.16 28.16 0 00.24-3.88h-.13a6.58 6.58 0 00-1.06.06v-1.3a6.82 6.82 0 001.17.07h.76V75a6.16 6.16 0 00-.07-1.06h1.42A6.31 6.31 0 003.47 75v.64h.47a7.47 7.47 0 001.06-.1v1a6.69 6.69 0 001.2-2.3 1.52 1.52 0 00.09-.37l1.33.25-.11.26c-.06.11-.09.2-.12.25l-.24.6H10a7.06 7.06 0 001.25-.07v1.29H9.29l.85.72c-.15.1-.29.21-.44.33l-.88.65a12.58 12.58 0 00.24 1.49 5.41 5.41 0 001.4-1.33l.81.91a13.15 13.15 0 01-1.81 1.6A9.75 9.75 0 0010.1 82a6.65 6.65 0 001.37 1.54 4.22 4.22 0 00-.79 1.33 9.25 9.25 0 01-2.92-6.13l-.5.29v4.6a9.77 9.77 0 00.06 1.24H5.93A7.7 7.7 0 006 83.66v-4c-.22.12-.42.21-.6.3a3.54 3.54 0 00-.57-1.17 13.05 13.05 0 002.44-1.17A15.6 15.6 0 009 76.41zm-5.12 11.4a5 5 0 00.49-1.49l1.57.17a3.69 3.69 0 00-.27.56l-.27.62a.58.58 0 01-.05.11h.76a16.05 16.05 0 003.14-.4l.08 1.36-.95.11c-1 .12-2.23.2-3.6.23a6.16 6.16 0 01-1.11 1.6l.24-.18.27-.17a2.93 2.93 0 011.43-.37 1.85 1.85 0 011.2.38 1.5 1.5 0 01.51.9l.16-.06 1.68-.6.66-.23.23-.12.57 1.38a4.32 4.32 0 00-.54.11 11.48 11.48 0 00-1.32.38l-1.15.4h-.13v1.44a6.12 6.12 0 000 .66H6.09a9.18 9.18 0 00.07-1.42V93a7.26 7.26 0 00-1.16.62 1.23 1.23 0 00-.62 1 .67.67 0 00.28.57 1.63 1.63 0 00.56.23 7 7 0 001.19.08 12.68 12.68 0 002.8-.29A5.19 5.19 0 0010 95l.12 1.54-.56.06a20.48 20.48 0 01-3.07.21 10 10 0 01-1.63-.12 3.47 3.47 0 01-1-.38A1.66 1.66 0 013 95.14a1.84 1.84 0 010-.41 2.06 2.06 0 01.52-1.33 5.07 5.07 0 011.7-1.29L6 91.7a.64.64 0 00-.72-.63 4 4 0 00-2.44 1.23 6 6 0 00-1 1.09L.7 92.31a6.59 6.59 0 001.08-1.07 13.36 13.36 0 001.45-2.06l.09-.18H1.08v-1.35a14.93 14.93 0 002.67.15z" data-name="レイヤー 1"/></g></svg>