<svg xmlns="http://www.w3.org/2000/svg" viewBox="0 0 183.36 119.95"><g data-name="レイヤー 2"><g data-name="レイヤー 1"><path d="M0 57.47h62.47v62.47H0z"/><path d="M120.57 0v57.49H62.4V30.05H.31V0h120.26zM98.79 85a2.6 2.6 0 01-.5.25 3.91 3.91 0 01-.68.17l-.58.11a3.9 3.9 0 00-1.18.35 1.16 1.16 0 00-.6 1.08 1.13 1.13 0 00.37 1 1.41 1.41 0 00.9.29 2.7 2.7 0 001.54-.48 2.07 2.07 0 00.73-1.77zm-1.56-1.19a4.19 4.19 0 001-.22.78.78 0 00.55-.73.86.86 0 00-.42-.83 2.74 2.74 0 00-1.24-.23 1.61 1.61 0 00-1.3.45 1.77 1.77 0 00-.37.9H93a3.68 3.68 0 01.73-2.15 4.2 4.2 0 013.49-1.29 6.15 6.15 0 012.86.64 2.42 2.42 0 011.25 2.4v5.61a1.51 1.51 0 00.15.68.88.88 0 00.38.29v.38H99.1a3.43 3.43 0 01-.16-.56c0-.17 0-.37-.07-.59a4.92 4.92 0 01-1.23 1 3.64 3.64 0 01-1.87.48 3.25 3.25 0 01-2.2-.76 2.7 2.7 0 01-.87-2.15 2.79 2.79 0 011.39-2.61 6.3 6.3 0 012.26-.62zm12.13-4.07h.22v2.61h-.74a2.13 2.13 0 00-2.07 1 4 4 0 00-.29 1.74v4.67h-2.58V80h2.44v1.71a5.71 5.71 0 011-1.34 2.82 2.82 0 011.87-.6h.12m1.11 2.1v-1.82h1.36v-2.72h2.53v2.72h1.58v1.82h-1.58V87a1.19 1.19 0 00.15.75 1.64 1.64 0 00.93.15h.5v1.91l-1.21.05a3.25 3.25 0 01-2.47-.63 1.87 1.87 0 01-.43-1.36v-6zM118 80h2.59v9.77H118zm2.59-1.16H118v-2.4h2.59zm4.77 7.77a1.73 1.73 0 00.36 1 2.36 2.36 0 001.76.51 2.68 2.68 0 001.2-.22.75.75 0 00.09-1.33 14.26 14.26 0 00-2.67-.77 5.58 5.58 0 01-2.35-1 2.25 2.25 0 01-.68-1.76 3.07 3.07 0 011.06-2.32 4.28 4.28 0 013-1 5.44 5.44 0 013 .73 3.1 3.1 0 011.33 2.52h-2.55a1.54 1.54 0 00-.28-.78 1.74 1.74 0 00-1.44-.52 2.1 2.1 0 00-1.19.26.75.75 0 00-.36.61.69.69 0 00.38.64 17 17 0 002.67.7 4.85 4.85 0 012.31 1.06 2.46 2.46 0 01.75 1.83 3 3 0 01-1.08 2.37 6.52 6.52 0 01-6.76 0 3.17 3.17 0 01-1.1-2.48zm7.64-4.74v-1.82h1.37v-2.72h2.52v2.72h1.59v1.82h-1.59V87a1.19 1.19 0 00.15.75 1.71 1.71 0 00.94.15h.5v1.91l-1.21.05a3.24 3.24 0 01-2.47-.63 1.87 1.87 0 01-.43-1.36v-6zM145.86 85a2.52 2.52 0 01-.49.25 4.33 4.33 0 01-.69.17l-.58.11a3.91 3.91 0 00-1.17.35 1.34 1.34 0 00-.24 2 1.45 1.45 0 00.9.29 2.67 2.67 0 001.54-.48 2 2 0 00.73-1.77zm-1.56-1.19a4 4 0 001-.22.77.77 0 00.55-.73.86.86 0 00-.42-.83 2.68 2.68 0 00-1.24-.23 1.64 1.64 0 00-1.3.45 1.85 1.85 0 00-.36.9h-2.46a3.68 3.68 0 01.72-2.11 4.18 4.18 0 013.49-1.29 6.18 6.18 0 012.86.64 2.44 2.44 0 011.25 2.4v5.61a1.51 1.51 0 00.15.68.82.82 0 00.38.29v.38h-2.78a2.66 2.66 0 01-.16-.56c0-.17-.06-.37-.08-.59a5.06 5.06 0 01-1.22 1 3.68 3.68 0 01-1.88.48 3.27 3.27 0 01-2.2-.76 2.7 2.7 0 01-.87-2.15 2.79 2.79 0 011.4-2.61 6.18 6.18 0 012.26-.62zm5.7-1.94v-1.82h1.37v-2.72h2.52v2.72h1.59v1.82h-1.59V87a1.19 1.19 0 00.15.75 1.71 1.71 0 00.94.15h.5v1.91l-1.21.05a3.24 3.24 0 01-2.47-.63 1.87 1.87 0 01-.43-1.36v-6zm7.52-1.87h2.59v9.77h-2.59zm2.59-1.16h-2.59v-2.4h2.59zm8.94 8.28a4.56 4.56 0 000-4.52 2.27 2.27 0 00-3.44 0 4.49 4.49 0 000 4.52 2.25 2.25 0 003.44 0m2 1.42a5.4 5.4 0 01-7.51 0 6.05 6.05 0 010-7.34 5.32 5.32 0 017.51 0 6.09 6.09 0 010 7.34m11.35-8.02a3.24 3.24 0 011 2.63v6.58h-2.61v-5.94a2.65 2.65 0 00-.21-1.18 1.43 1.43 0 00-1.42-.75 1.76 1.76 0 00-1.77 1.1 3.72 3.72 0 00-.25 1.48v5.29h-2.55V80H177v1.43a4.1 4.1 0 01.93-1.09 3.22 3.22 0 012-.59 3.78 3.78 0 012.46.79M93.3 100.55a2.29 2.29 0 011.73-.7 2.33 2.33 0 012 .93 2 2 0 01.38 1h-1.12a1.65 1.65 0 00-.29-.61 1.17 1.17 0 00-.93-.36 1.15 1.15 0 00-1 .51 2.55 2.55 0 00-.36 1.47 2.22 2.22 0 00.38 1.41 1.19 1.19 0 001 .47 1.08 1.08 0 00.92-.4 1.79 1.79 0 00.3-.65h1.16a2.53 2.53 0 01-.77 1.49 2.25 2.25 0 01-1.59.58 2.39 2.39 0 01-1.91-.69 3.18 3.18 0 01-.68-2.14 3.1 3.1 0 01.78-2.27m6.43.35v1.51H101a1.17 1.17 0 00.56-.1.62.62 0 00.33-.63.68.68 0 00-.32-.68 1.1 1.1 0 00-.54-.1zm2.43-.83a1.26 1.26 0 01.53.39 2 2 0 01.28.47 1.55 1.55 0 01.1.59 1.75 1.75 0 01-.2.79 1.13 1.13 0 01-.67.55 1 1 0 01.55.44 1.82 1.82 0 01.17.88v.38a2.94 2.94 0 000 .52.48.48 0 00.21.32v.14h-1.29c0-.12-.06-.22-.08-.3a2.61 2.61 0 01-.05-.48v-.53a1 1 0 00-.18-.71.94.94 0 00-.67-.18h-1.13v2.2h-1.14V100h2.68a2.47 2.47 0 01.89.15m6.35.81h-2.98v1.19h2.74v.98h-2.74v1.44h3.12v1.01h-4.26v-5.62h4.12v1zm2.74 2.5h1.44l-.71-2.22zm.08-3.5h1.32l2 5.62h-1.27l-.37-1.16h-2.07l-.38 1.16h-1.23zm8.27 0v1h-1.68v4.62h-1.19v-4.62h-1.69v-1h4.56zm4.4 4.27a2.82 2.82 0 000-2.93 1.34 1.34 0 00-1.1-.52 1.38 1.38 0 00-1.12.52 2.31 2.31 0 00-.41 1.46 2.34 2.34 0 00.41 1.47 1.37 1.37 0 001.12.51 1.33 1.33 0 001.1-.51m.74.85a2.91 2.91 0 01-3.69 0 3 3 0 01-.85-2.32 3 3 0 01.85-2.32 2.94 2.94 0 013.69 0 3 3 0 01.85 2.32 3.07 3.07 0 01-.85 2.32m3.1-4.14v1.51h1.27a1.17 1.17 0 00.56-.1.62.62 0 00.34-.63.69.69 0 00-.33-.68 1.1 1.1 0 00-.54-.1zm2.43-.83a1.26 1.26 0 01.53.39 1.72 1.72 0 01.28.47 1.55 1.55 0 01.1.59 1.63 1.63 0 01-.2.79 1.13 1.13 0 01-.67.55 1.06 1.06 0 01.56.44 2 2 0 01.16.88v.38a2.94 2.94 0 000 .52.46.46 0 00.22.32v.14H130c0-.12-.06-.22-.08-.3a3.91 3.91 0 01-.05-.48v-.53a1 1 0 00-.19-.71.94.94 0 00-.67-.18h-1.15v2.2h-1.16V100h2.69a2.45 2.45 0 01.88.15m3.04 3.7a1 1 0 001.22.92 2.11 2.11 0 00.68-.09.67.67 0 00.51-.66.51.51 0 00-.25-.43 3 3 0 00-.78-.26l-.61-.13a4 4 0 01-1.23-.43 1.38 1.38 0 01-.57-1.22 1.61 1.61 0 01.56-1.25 2.32 2.32 0 011.63-.5 2.44 2.44 0 011.53.47 1.65 1.65 0 01.67 1.36h-1.13a.82.82 0 00-.45-.72 1.62 1.62 0 00-.7-.14 1.25 1.25 0 00-.74.19.57.57 0 00-.28.51.48.48 0 00.27.45 4.06 4.06 0 00.75.23l1 .23a2.51 2.51 0 011 .41 1.39 1.39 0 01.5 1.15 1.62 1.62 0 01-.6 1.28 2.48 2.48 0 01-1.68.5 2.69 2.69 0 01-1.74-.5 1.63 1.63 0 01-.64-1.37zm6.75-3.89h1.17v5.62h-1.17zm2.4 0h1.23l2.23 3.92v-3.92h1.1v5.62h-1.18l-2.28-3.99v3.99h-1.1v-5.62zm8.16 0h1.16v2.32l2.17-2.32h1.52l-2.31 2.31 2.42 3.31h-1.51l-1.73-2.45-.56.57v1.88h-1.16v-5.62zm8.98 0h1.34l-1.88 3.51v2.11h-1.18v-2.11l-1.94-3.51h1.38l1.17 2.45 1.11-2.45zm2.16.04H163v3.45a2 2 0 00.13.85 1.15 1.15 0 001.85 0 2 2 0 00.14-.85V100h1.19v3.45a2.85 2.85 0 01-.28 1.4 2.05 2.05 0 01-2 .91 2.08 2.08 0 01-2-.91 2.85 2.85 0 01-.28-1.4zm6.64 3.85a1.15 1.15 0 00.22.57 1.25 1.25 0 001 .35 2.22 2.22 0 00.69-.09.67.67 0 00.5-.66.5.5 0 00-.24-.43 3.27 3.27 0 00-.79-.26l-.6-.13a4.25 4.25 0 01-1.24-.43 1.37 1.37 0 01-.56-1.22 1.6 1.6 0 01.55-1.25 2.34 2.34 0 011.63-.5 2.49 2.49 0 011.54.47 1.67 1.67 0 01.66 1.36h-1.13a.82.82 0 00-.45-.72 1.62 1.62 0 00-.7-.14 1.25 1.25 0 00-.74.19.57.57 0 00-.28.51.48.48 0 00.28.45 3.64 3.64 0 00.74.23l1 .23a2.52 2.52 0 011 .41 1.36 1.36 0 01.5 1.15 1.64 1.64 0 01-.59 1.28 2.51 2.51 0 01-1.68.5 2.72 2.72 0 01-1.75-.5 1.66 1.66 0 01-.64-1.37zm4.51 1.73v-5.62h1.17v2.14h2.19v-2.14h1.16v5.62h-1.16v-2.51h-2.19v2.51h-1.17zm5.81-5.58h1.19v3.45a2 2 0 00.14.85 1.15 1.15 0 001.85 0 2 2 0 00.14-.85V100h1.19v3.45a2.85 2.85 0 01-.28 1.4 2.6 2.6 0 01-3.95 0 2.85 2.85 0 01-.28-1.4zm-85.27 11.26v.13a2.57 2.57 0 00.13.91.5.5 0 00.52.27.5.5 0 00.51-.29 1.55 1.55 0 00.08-.58v-3.93h1.17v3.91a2.3 2.3 0 01-.24 1.14 2 2 0 01-2.92.13 2.91 2.91 0 01-.36-1.56v-.13zm5.34.01h1.44l-.71-2.22zm.08-3.5h1.33l2 5.62h-1.28l-.37-1.16h-2.08l-.38 1.16h-1.23zm7.06 1.16a.94.94 0 00-.62-.18h-1.06v1.65h1.06a.89.89 0 00.62-.2.83.83 0 00.23-.64.78.78 0 00-.23-.63m.9 2a2.17 2.17 0 01-1.41.41h-1.17v2h-1.17v-5.62h2.42a2 2 0 011.33.43 1.7 1.7 0 01.49 1.35 1.76 1.76 0 01-.49 1.41m3.17.36h1.44l-.71-2.22zm.08-3.5h1.33l2 5.62h-1.28l-.37-1.16h-2.07l-.38 1.16H108zm4.12 0h1.23l2.23 3.92v-3.92h1.09v5.62h-1.17l-2.29-3.99v3.99h-1.09v-5.62z"/></g></g></svg>