<svg xmlns="http://www.w3.org/2000/svg" viewBox="0 0 22.87 29.83"><g data-name="レイヤー 2"><path d="M2 1.26C0 2.59-.41 6.75.37 10.14a30.55 30.55 0 004 9.5 31.53 31.53 0 007 7.57c2.78 2.09 6.74 3.42 8.79 2.09a10.4 10.4 0 002.64-2.84l-1.1-1.7-3-4.67c-.22-.34-1.63 0-2.35.38a6.83 6.83 0 00-1.86 2c-.66.38-1.22 0-2.38-.54-1.42-.65-3-2.69-4.3-4.54s-2.33-4.19-2.35-5.76c0-1.28-.14-1.94.48-2.39a6.77 6.77 0 002.6-.87c.66-.49 1.53-1.65 1.31-2l-3-4.67L5.72 0A10.22 10.22 0 002 1.26z" fill="#333" data-name="レイヤー 1"/></g></svg>