<svg xmlns="http://www.w3.org/2000/svg" viewBox="0 0 286.4 357.99"><g data-name="レイヤー 2"><path d="M285.47 2.16a.46.46 0 01-.24.16A15.34 15.34 0 01281 8.08a8.39 8.39 0 00-1.1-.73 10.93 10.93 0 003.58-4.47h-12.92V1.66h13.57l.2-.09zm-7 3.28c0 .14-.18.27-.41.3-.52 4.25-2 8.3-5.69 10.45a8.49 8.49 0 00-1.06-.83c3.67-2 5-5.78 5.42-10.12zm-1.34 13.3l1.85.14c0 .2-.18.33-.48.38V34h-1.37zm7.99 24.86H279l.3.09c0 .11-.16.2-.36.21-.48 3.35-1.71 6.34-5.56 8.23a10.82 10.82 0 00-1-.9c3.74-1.8 4.79-4.32 5.2-7.63h-7v-1.21h14.47zm-1.78-5.08h-11v-1.21h11zm1.93 18.6a.37.37 0 01-.31.12 2.13 2.13 0 01-.25 0 34.2 34.2 0 01-4 3.33 3.36 3.36 0 01.4.16.58.58 0 01-.31.2v7.81h-1.1V61.2a46.57 46.57 0 01-5.92 3.44 6.2 6.2 0 00-.65-.85A36 36 0 00284 56.23zm-2.54 17.26a.42.42 0 01-.23.2 28.25 28.25 0 01-3.61 6.19 64.6 64.6 0 016.59 6.1l-1.09 1a59 59 0 00-6.32-6 28.58 28.58 0 01-6.94 6 7 7 0 00-.93-1 25.78 25.78 0 0010.55-11.77h-8.84v-1.23h9.54l.24-.09zm2.39 23.22H279l.3.09c0 .11-.16.2-.36.21-.48 3.35-1.71 6.34-5.56 8.23a10.82 10.82 0 00-1-.9c3.74-1.8 4.79-4.32 5.2-7.63h-7v-1.21h14.47zm-1.78-5.08h-11v-1.21h11zm-6.21 16.22l1.85.14c0 .2-.18.33-.48.38V124h-1.37zM271 131.69a25.75 25.75 0 014.85 1.62l-.54 1.14a26 26 0 00-4.85-1.66zm1.08 8.8c5.85-2 9.85-5.07 12.25-10.47.27.23.82.61 1.09.79-2.41 5.35-6.6 8.68-12.11 10.64a.44.44 0 01-.22.45zm.9-13.27a30 30 0 014.83 1.77l-.6 1.1a27.9 27.9 0 00-4.77-1.82zm11.14 20.02v10.95H283v-.79h-8v-1h8v-3.66h-7.37v-1H283v-3.49h-7.6v-1zM271.66 164a22.51 22.51 0 015.36 2.45l-.68 1.13a23.36 23.36 0 00-5.26-2.5zm-.08 12.48c6.4-2 10.65-5.57 12.81-10.55a7.12 7.12 0 001.17.74c-2.25 4.93-6.65 8.76-12.75 10.8a.61.61 0 01-.25.41zm-1.24 5.97c1.35-.06 12.44-.85 14.78-.87v1.36h-.66a5.16 5.16 0 00-3.08.92c-2.7 1.62-5.31 4.51-5.31 6.84 0 2.52 1.76 4 6.23 4.59l-.6 1.26c-5.11-.74-7-2.65-7-5.85 0-2.54 2.5-5.62 5.8-7.69-2 .14-7.29.54-9.62.76a.52.52 0 01-.39.28zM282 186a13.34 13.34 0 012.45 2.48l-.69.56a11.92 11.92 0 00-2.37-2.5zm1.94-1.59a11.08 11.08 0 012.45 2.49l-.68.54a12.85 12.85 0 00-2.38-2.49zm-12.64 29.33a19.72 19.72 0 01-.78-6.34 46.21 46.21 0 011-8.41l1.75.34a.47.47 0 01-.47.33 34.38 34.38 0 00-1 7.76 21.87 21.87 0 00.16 3.4c.4-1.08 1.12-2.81 1.5-3.65l.81.75c-.6 1.23-1.86 4-1.86 4.81a2.36 2.36 0 00.18.86zm4.57-10.61c1.51 0 3 0 4.54-.07-.08-1.55-.13-2.88-.16-4.21l1.81.05c0 .18-.18.32-.46.38 0 1.15 0 2.32.09 3.69a15.83 15.83 0 003.52-.72l.17 1.26a17.71 17.71 0 01-3.64.65c.07 2 .16 4.1.22 5.26a13.37 13.37 0 013.67 2.28l-.7 1.15a10.93 10.93 0 00-2.92-2c0 1.53-.31 3.24-3 3.24-2.1 0-3.51-1-3.51-2.59 0-1.84 1.86-2.65 3.51-2.65a6.25 6.25 0 011.71.24c0-1.14-.16-3-.25-4.79-.56 0-1.31.05-1.84.05h-2.73zm4.93 7.08a6.08 6.08 0 00-1.78-.33c-1.1 0-2.41.4-2.41 1.53s1.08 1.52 2.39 1.52 1.82-.65 1.82-2.09zM228.05 14.58c0 .67.1.78.63.78h1.69c.54 0 .65-.56.7-3.3a3 3 0 001.14.56c-.13 3-.42 3.89-1.75 3.89h-2c-1.32 0-1.71-.41-1.71-1.93V5.74l-4.36.11c-.4 4.29-1.68 8.48-5.89 10.91a3.24 3.24 0 00-.94-.9c3.93-2.14 5.15-5.94 5.55-10l-4.89.14-.06-1.2 5.08-.13c.11-1.55.09-3.11.11-4.63l1.71.09c0 .17-.16.27-.43.31 0 1.35 0 2.77-.11 4.2l4.55-.11.18-.13.87.2-.07.31zM215.32 28a13.37 13.37 0 001.78-5.21l1 .29a15 15 0 01-1.78 5.39zm3.78-9.37l1.55.09c0 .13-.11.22-.36.26v5.22c0 3.71-.35 7.63-3.53 10.62a3.8 3.8 0 00-.89-.9c2.92-2.75 3.23-6.35 3.23-9.72zm3.29 9.53a20.48 20.48 0 00-1.39-4.65l1-.36a21.7 21.7 0 011.46 4.52zm2-9.16l1.54.1c0 .13-.12.22-.36.25V33.7h-1.18zm3.84 9a22.24 22.24 0 00-2-4.55l1-.45a21.17 21.17 0 012.1 4.46zm1.58-9.43l1.57.09c0 .14-.13.21-.36.25v15.82h-1.21zm-1.1 19.19l.92.54a.41.41 0 01-.22.19 16.15 16.15 0 01-4.41 4.62 24 24 0 007.47 2.94 4.85 4.85 0 00-.77 1.1c-.78-.18-1.53-.4-2.27-.65v6.19h-1.23V52h-8.42v.8h-1.19v-6.34a21.62 21.62 0 01-2.52.81 4.07 4.07 0 00-.63-1.08 26.22 26.22 0 007.49-3.1 18.21 18.21 0 01-3.27-3.09 18.87 18.87 0 01-3.17 2.34 7.58 7.58 0 00-.85-.85 16.73 16.73 0 006-5.62l1.39.56a.39.39 0 01-.42.13 15.34 15.34 0 01-.93 1.28h6.79zm-.27 8.4a24.09 24.09 0 01-4.54-2.35 26.15 26.15 0 01-4.55 2.35zm-8.71 4.69h8.42v-3.58h-8.42zm1-11.93l-.3.32a16.42 16.42 0 003.42 3.19 15.77 15.77 0 003.74-3.51zM219 65.15l2.09-.83.24 1c-1.88.87-3.88 1.71-5.14 2.25a.32.32 0 01-.19.31l-.63-1.37c.68-.23 1.54-.58 2.48-.94v-6h-2.18v-1.09h2.18v-4.3l1.51.11c0 .12-.12.2-.36.23v4h2v1.16h-2zm4.76 2.85c0 1 .23 1.22 1.49 1.22h4.6c1.08 0 1.26-.5 1.4-2.66a3.26 3.26 0 001.1.48c-.2 2.49-.6 3.28-2.49 3.28h-4.64c-2 0-2.61-.45-2.61-2.34v-6.04l-1.82.77-.47-1.08 2.29-1v-4.9l1.51.11c0 .12-.13.21-.36.25v4.07l2.61-1.16v-5l1.5.09c0 .12-.11.21-.35.25v4.2l2.88-1.25.26-.19 1 .36a.36.36 0 01-.18.19 67.3 67.3 0 01-.2 7c-.16 1.1-.78 1.28-2.68 1.28a4.64 4.64 0 00-.29-1.08h1.28c.2 0 .48-.09.57-.53a54.12 54.12 0 00.15-5.7l-2.78 1.19v6.91h-1.15v-6.4l-2.61 1.12zm-7.42 6.45c1.35-.06 12.44-.85 14.78-.87v1.36h-.66a5.16 5.16 0 00-3.08.92c-2.7 1.62-5.31 4.51-5.31 6.84 0 2.52 1.76 4 6.23 4.59l-.6 1.26c-5.11-.74-7-2.65-7-5.85 0-2.54 2.5-5.62 5.8-7.69-2 .14-7.29.54-9.62.76a.52.52 0 01-.39.28zM228 78a13.34 13.34 0 012.45 2.48l-.69.56a11.92 11.92 0 00-2.37-2.5zm2-1.59a11.08 11.08 0 012.45 2.49l-.68.54a12.85 12.85 0 00-2.43-2.44zM216.13 95.1a14.13 14.13 0 013.36 1.9l-.68 1a15.82 15.82 0 00-3.33-2zm-.13 10.6a56.72 56.72 0 003.26-5.94l.92.76a62 62 0 01-3 5.61.4.4 0 01.09.25.32.32 0 01-.06.2zm1.1-15.52a13.77 13.77 0 013.28 2l-.71 1a13.68 13.68 0 00-3.26-2.09zm15.14 6.39h-5.38v3.14h4.08v6.91h-1.22v-.68h-6.81v.81h-1.18v-7h3.92v-3.18h-5.31V95.4h5.31v-3.13c-1.44.23-2.93.45-4.36.61a3.24 3.24 0 00-.36-1 47.43 47.43 0 009.2-1.81l1.16 1c-.08.07-.11.07-.36.07a32.35 32.35 0 01-4.07 1v3.26h5.38zm-2.52 8.25v-4h-6.81v4zm-10.32 13.35v3.5l2.47-.62.09 1c-2.14.58-4.39 1.17-5.82 1.53a.36.36 0 01-.21.29l-.51-1.32.81-.18v-6.24l1.32.09c0 .1-.11.2-.34.21v5.73l1.17-.29v-7.56h-2.13v-5.53h5v5.53h-1.85v2.77h2.2v1.06zm-2.12-8.3v3.42h2.95v-3.42zm14.94 13.29v1h-8.1v.56H223v-6.09a11.14 11.14 0 01-1.27 1.51 5.92 5.92 0 00-.83-.75 13.7 13.7 0 003.2-5.24h-2v-.92h3.24v-1.37h-2.83V111h2.83v-1.3h-3.19v-.93h4.25v5.44h-2.27l1.35.37c0 .11-.14.18-.37.18-.2.49-.44 1-.72 1.59h2.46a14.91 14.91 0 00.92-2l1.33.43c0 .13-.19.18-.37.16-.18.4-.47.92-.74 1.39h3.69v1H228v1.33h3.24v.9H228v1.31h3.24v.9H228v1.39zm-5.33-4.5v-1.33h-2.77v1.33zm0 2.21v-1.31h-2.77v1.31zm-2.77.9v1.39h2.77v-1.39zm7.51-13v5.44h-4.41v-.92h3.33v-1.37h-2.92V111h2.92v-1.3h-3.3v-.93zm-.49 21.39a34.94 34.94 0 01-6 1c.7 2.45 1.46 3.91 3.4 4.75l-.88 1.1a6.18 6.18 0 00-4-1.24l-.21-1.06a17.45 17.45 0 012 .27 9.69 9.69 0 01-1.61-3.73c-.81.07-1.91.11-3 .11s-3.08 0-4.23-.06v-1.22c1.08.05 2.61.05 4.25.05.92 0 2 0 2.68-.09-.21-1-.41-2.3-.63-3.69h1.93c0 .21-.18.34-.47.41.11 1 .29 2.16.49 3.15a30.05 30.05 0 006-1.06zM227.92 142c-.86 0-1.78.05-3.35.05-3.76 0-6.43-1.15-6.43-3.56a4.48 4.48 0 011.62-3l1 .78a3.15 3.15 0 00-1.3 2.21c0 1.78 2.3 2.36 5.17 2.36 1.56 0 2.48 0 3.4-.09zm-11.58 6.14a17.13 17.13 0 003.39-.27c0-1.08.05-1.67.12-3.31l1.86.14c0 .2-.2.33-.51.36-.07.79-.14 1.91-.18 2.58l.56.21a9.58 9.58 0 00-.72 2.58c2-1.86 4.18-3.17 5.67-3.17 1.7 0 2.54 1.19 2.54 3.28v.7c-.13 1.58-.31 3.83-.31 5.27 0 1.08.13 1.66.88 1.66A4.91 4.91 0 00232 157a11.63 11.63 0 00.25 1.37 5.42 5.42 0 01-2.83 1.17c-1.51 0-2-.9-2-2.77 0-.94.32-5.89.32-5.91 0-1.56-.54-2.26-1.42-2.26-1.35 0-3.62 1.45-5.49 3.44v8.26h-1.26v-7.33a18.59 18.59 0 01-3.28 4.34l-.64-1.13a18.63 18.63 0 004-5.44v-1.59a18.11 18.11 0 01-3.31.31zm0 16.31c1.35-.06 12.44-.85 14.78-.87v1.36h-.66a5.16 5.16 0 00-3.08.92c-2.7 1.62-5.31 4.51-5.31 6.84 0 2.52 1.76 4 6.23 4.59l-.6 1.26c-5.11-.74-7-2.65-7-5.85 0-2.54 2.5-5.62 5.8-7.69-1.91.13-7.29.54-9.62.76a.52.52 0 01-.39.28zm2.23 18c0 .16-.23.27-.48.29a29.1 29.1 0 00-.34 4.48c0 .67 0 1.32.07 1.89.21 3.06 1.46 4.92 2.84 4.9.72 0 1.66-1.84 2.31-3.85a6.51 6.51 0 001 .77c-.83 2.43-1.87 4.41-3.36 4.45-2.29 0-3.88-2.74-4.13-6.2-.05-.68-.07-1.44-.07-2.25a43 43 0 01.27-4.84zm11.94 8.37a9 9 0 00-4.53-6.77l.79-1a9.87 9.87 0 015.07 7.33zm-8.87 15.1a10.9 10.9 0 014.46-1c2.86 0 4.66 1.67 4.66 4.32 0 3.26-2.86 5.06-6.48 5.06-2.34 0-3.94-.94-3.94-2.52a2.72 2.72 0 012.95-2.41 3.8 3.8 0 013.68 3.25 3.52 3.52 0 002.48-3.36c0-1.95-1.44-3.19-3.71-3.19a10.24 10.24 0 00-6.53 2.36 24.79 24.79 0 00-1.73 1.82l-.92-.92c1.62-1.69 6.77-6.61 9.22-8.9-1.05.15-4.65.29-6.7.36a.64.64 0 01-.38.28l-.14-1.53c2.43 0 7.07-.2 8.39-.4l.27-.13.95 1.17a.81.81 0 01-.43.16c-1.28 1-4.7 4.25-6.1 5.6zm2.48 7.2a7.77 7.77 0 001.64-.18 2.78 2.78 0 00-2.56-2.55c-.93 0-1.76.5-1.76 1.33 0 1.1 1.49 1.4 2.68 1.4zm7.35 5.04a.46.46 0 01-.24.16 15.34 15.34 0 01-4.26 5.76 8.39 8.39 0 00-1.1-.73 10.93 10.93 0 003.58-4.47h-12.89v-1.22h13.57l.2-.09zm-7 3.28c0 .14-.18.27-.41.3-.52 4.25-2 8.3-5.69 10.45a8.49 8.49 0 00-1.06-.83c3.67-2 5-5.78 5.42-10.12zm-1.34 13.3l1.85.14c0 .2-.18.33-.48.38V250h-1.37zm7.99 24.86H225l.3.09c0 .11-.16.2-.36.21-.48 3.35-1.71 6.34-5.56 8.23a10.82 10.82 0 00-1-.9c3.74-1.8 4.79-4.32 5.2-7.63h-7v-1.21h14.47zm-1.78-5.08h-11.05v-1.21h11.05zm1.93 18.6a.37.37 0 01-.31.12 2.13 2.13 0 01-.25 0 34.2 34.2 0 01-4 3.33 3.36 3.36 0 01.4.16.58.58 0 01-.31.2v7.81h-1.1v-7.54a46.57 46.57 0 01-5.92 3.44 6.2 6.2 0 00-.65-.85 36 36 0 0010.87-7.56zm-2.54 17.26a.42.42 0 01-.23.2 28.25 28.25 0 01-3.61 6.19 64.6 64.6 0 016.59 6.1l-1.09 1a59 59 0 00-6.32-6.05 28.58 28.58 0 01-6.94 6.05 7 7 0 00-.93-1 25.78 25.78 0 0010.55-11.75h-8.84v-1.23h9.54l.24-.09zm.27 25.72a64.73 64.73 0 00-6.32-2.93v9h-1.35v-15.65l1.81.11c0 .2-.16.33-.46.38v5.26l.27-.38a63 63 0 016.77 3zm2.38 15.62a.3.3 0 01-.11 0 .41.41 0 01-.27-.11c-1.37.45-3.37 1.19-4.86 1.84 0 .41.05.88.05 1.4s0 1.23-.05 1.93l-1.32.07c.06-.65.09-1.47.09-2.18v-.72c-2 1-3.69 2.2-3.69 3.28s1.25 1.55 3.73 1.55a41.28 41.28 0 004.52-.18v1.2c-1.06.11-2.68.15-4.54.15-3.46 0-5-.83-5-2.67 0-1.58 2.09-3.11 4.79-4.46-.11-1.14-.61-1.69-1.33-1.69-1.31 0-2.68.73-4.3 2.54-.51.55-1.21 1.26-2 2l-.89-.88a12.65 12.65 0 004.54-6.65h-4V327h4.34a23.83 23.83 0 00.48-2.58l1.77.22c0 .18-.18.29-.45.33-.13.71-.29 1.34-.45 2a24.15 24.15 0 006.19-1l.22 1.21a27 27 0 01-6.76 1 13.47 13.47 0 01-1.29 3.05 4.73 4.73 0 012.89-1.17c1.23 0 2 .88 2.24 2.34 1.51-.69 3.42-1.43 4.86-2zM177.18 5.64h-5.39l.08 8.75c0 1.82-1.19 1.87-4.5 1.83a6.08 6.08 0 00-.33-1.17h2.94a.66.66 0 00.63-.67l-.08-7.78a25.87 25.87 0 01-7.76 7.24 4.45 4.45 0 00-.88-1 24.2 24.2 0 007.87-7.22h-7.17V4.41h7.91V.52l1.73.07c0 .2-.2.31-.45.35v3.47h5.4zM163.66 20a22.51 22.51 0 015.34 2.43l-.68 1.13a23.36 23.36 0 00-5.26-2.5zm-.08 12.48c6.4-2 10.65-5.57 12.81-10.55a7.12 7.12 0 001.17.74c-2.25 4.93-6.65 8.76-12.75 10.8a.61.61 0 01-.25.41zm13.02 9.89a.34.34 0 01-.23.18c-1.48 5.44-4.49 8.09-9.87 9.58a5.38 5.38 0 00-.75-1c4.89-1.23 7.94-3.75 9.07-7.92H162.9v-1.27h12.46l.18-.11zm-1.69-3.85h-10.26v-1.19h10.26zm1.89 17.15a.41.41 0 01-.34.15.58.58 0 01-.18 0 44 44 0 01-5.13 4.3l.43.2a.48.48 0 01-.4.24v9.67h-1.31V61a52.17 52.17 0 01-6.87 4 6.51 6.51 0 00-.76-1 45.82 45.82 0 0013.2-9.31zM163.66 74a22.51 22.51 0 015.34 2.43l-.68 1.13a23.36 23.36 0 00-5.26-2.5zm-.08 12.48c6.4-2 10.65-5.57 12.81-10.55a7.12 7.12 0 001.17.74c-2.25 4.93-6.65 8.76-12.75 10.8a.61.61 0 01-.25.41zm-1.24 5.97c1.35-.06 12.44-.85 14.78-.87v1.36h-.66a5.16 5.16 0 00-3.08.92c-2.7 1.62-5.31 4.51-5.31 6.84 0 2.52 1.76 4 6.23 4.59l-.6 1.26c-5.11-.74-7-2.65-7-5.85 0-2.54 2.5-5.62 5.8-7.69-2 .14-7.29.54-9.62.76a.52.52 0 01-.39.28zM174 96a13.34 13.34 0 012.45 2.48l-.69.56a11.92 11.92 0 00-2.37-2.5zm2-1.59a11.08 11.08 0 012.45 2.49l-.68.54a12.85 12.85 0 00-2.43-2.44zm-.21 28.52a34.36 34.36 0 01-5.53.41 20.62 20.62 0 01-3.47-.23c-2.18-.49-3.12-1.86-3.12-3.44a5.74 5.74 0 011.84-3.84l1.05.54a4.9 4.9 0 00-1.59 3.19c0 1.06.7 2 2.25 2.36a16.77 16.77 0 002.88.2 31 31 0 005.6-.49zm-8.08-9.08a20.94 20.94 0 013.18-2.09c-1.36.16-4.5.21-6.5.21v-1.26h1c2.3 0 7 0 9.29-.58l.14 1.32a7 7 0 00-1.89.54 19.14 19.14 0 00-4.16 2.52zm8.06 2.56a11.9 11.9 0 00-2.41-2.45l.6-.56a13.5 13.5 0 012.46 2.43zm1.89-1.71a12.56 12.56 0 00-2.41-2.43l.6-.58a13.27 13.27 0 012.46 2.45zM167.15 134a18.6 18.6 0 00-1.13-1.78l.91-.43a15.81 15.81 0 012.09 3.65l-1 .47a6.77 6.77 0 00-.41-1l-2 .11v7.71h-1.1v-7.66c-1 0-2 .09-2.7.11 0 .14-.12.2-.25.24l-.32-1.36h1.33c.4-.46.83-1 1.24-1.58a16.4 16.4 0 00-2.39-2.61l.61-.79a5.82 5.82 0 01.54.48 28.14 28.14 0 001.78-3.56l1.32.56c-.07.1-.18.14-.38.14a32.25 32.25 0 01-2 3.53 11 11 0 011.17 1.35c.81-1.21 1.59-2.48 2.15-3.53l1.27.61a.51.51 0 01-.41.15 50.77 50.77 0 01-3.71 5.24zm-3.35 2.72c0 .11-.14.18-.34.18a15.78 15.78 0 01-1.23 4.32 7.62 7.62 0 00-.9-.47 15.29 15.29 0 001.16-4.37zm3.87 3.49a15.63 15.63 0 00-1.19-3.58l.94-.31a17.94 17.94 0 011.26 3.55zm9.51-13.28h.57v.4c-.15 4.17-.31 5.63-.72 6.14-.29.36-.6.5-1.84.5h-1.24a3 3 0 00-.34-1.1c.81.07 1.58.09 1.87.09a.69.69 0 00.57-.18c.27-.31.42-1.53.53-4.74h-3.64c-.34 2.5-1 5-3.64 6.38a3 3 0 00-.75-.87c2.21-1.13 2.9-3.22 3.18-5.51h-2.84v-1.13zm-7.82 15.82v-7.23h8v7.16h-1.17V142h-5.69v.79zm6.79-6.14h-5.65v4.25h5.65zm-13.93 15.67a6.59 6.59 0 00-.76-.95 20 20 0 007.69-7.38l1.78.1a.42.42 0 01-.38.27 20.59 20.59 0 007.8 6.76 6.09 6.09 0 00-.81 1.08 22.6 22.6 0 01-7.74-6.9 21.57 21.57 0 01-7.58 7.02zm3.71-1.82c.9.08 1.26.09 1.6.11 0 .13-.13.22-.36.25v2.26c0 2.59-.4 5.54-4.09 7.68a4.62 4.62 0 00-1-.86c3.47-2 3.8-4.57 3.8-6.84zm6.55-.07l1.6.11c0 .13-.11.22-.36.25v10h-1.24zM170.41 165c0-.4-.07-2.36-.11-2.81l1.86.07c0 .15-.15.33-.47.38v2.32c2.22-.07 4.54-.12 5.89-.14v1.24c-1.53 0-3.71 0-5.85.07 0 1.41.07 2.7.12 3.69a6.2 6.2 0 01.22 1.9 7.49 7.49 0 01-.18 1.74c-.47 2.11-2 4-5.18 5.22a11 11 0 00-.92-1c2.75-1 4.23-2.49 4.68-4.2a2.26 2.26 0 01-1.85 1 3.08 3.08 0 01-3-3.16 3.31 3.31 0 013.24-3.36 2.65 2.65 0 011.68.56c0-.31 0-1.52-.08-2.29-1.87 0-7.56.23-8.3.27v-1.19l4.1-.11zm.34 6.32c0-.7 0-2.34-1.84-2.34a2.17 2.17 0 00-2.14 2.28 2 2 0 002 2.09 1.94 1.94 0 001.98-2.04zm-3.11 16.6a10.9 10.9 0 014.46-1c2.86 0 4.66 1.67 4.66 4.32 0 3.26-2.86 5.06-6.48 5.06-2.34 0-3.94-.94-3.94-2.52a2.72 2.72 0 012.95-2.41 3.8 3.8 0 013.68 3.25 3.52 3.52 0 002.48-3.36c0-1.95-1.44-3.19-3.71-3.19a10.24 10.24 0 00-6.53 2.36 24.79 24.79 0 00-1.73 1.82l-.92-.92c1.62-1.69 6.77-6.61 9.22-8.9-1.05.15-4.65.29-6.7.36a.64.64 0 01-.38.28l-.14-1.53c2.43 0 7.07-.2 8.39-.4l.27-.13.95 1.17a.81.81 0 01-.43.16c-1.28 1-4.7 4.25-6.1 5.6zm2.48 7.2a7.77 7.77 0 001.64-.18 2.78 2.78 0 00-2.56-2.55c-.93 0-1.76.5-1.76 1.33 0 1.1 1.49 1.4 2.68 1.4zM108.59.18a11.38 11.38 0 012.11 2.21 16 16 0 001.6-2.3l1.28.65a.32.32 0 01-.34.12 16.7 16.7 0 01-1.91 2.54 13.24 13.24 0 011.28 6.48c0 2.72-.2 5.14-1 6.15-.35.45-.78.72-2.58.72h-.72a2.33 2.33 0 00-.38-1.19c.47 0 .9.05 1.26.05 1 0 1.24 0 1.53-.38.51-.66.69-2.86.69-5.34V8.68a15.71 15.71 0 01-3.3 3.58 4.45 4.45 0 00-.82-.93 12.89 12.89 0 003.94-4.41 9.34 9.34 0 00-.78-2.61 23.22 23.22 0 01-2.25 2 5.54 5.54 0 00-.82-.78 17.35 17.35 0 002.52-2.21 10.37 10.37 0 00-2.13-2.47zm13.15 11.09a19.26 19.26 0 012.64 5l-1.13.49a10 10 0 00-.56-1.51c-3.31.2-6.75.38-8.91.48a.28.28 0 01-.29.24l-.41-1.42c1.29-.06 3.06-.11 5-.18V10.1H114V3.31h4.08V0l1.55.09c0 .13-.12.22-.36.25v3h4.25v6.76h-4.25v4.25c1 0 2-.07 2.94-.13a23.93 23.93 0 00-1.5-2.52zM115.15 9h2.93V4.45h-2.93zm7.18-4.52h-3.06V9h3.06zm-5.53 13.83a.43.43 0 01-.39.19c-.2.58-.51 1.35-.79 2h6.53v14.17h-1.26v-1h-9.81v1.06h-1.21V20.52h4.47a18.07 18.07 0 00.81-2.54zm4.09 3.4h-9.81v2.88h9.81zm0 4h-9.81v2.85h9.81zm-9.81 6.85h9.81V29.7h-9.81zm5.83 6.73a.45.45 0 01-.45.29c-.65 5.6-2.52 10.48-5.51 10.48-1.51 0-2.88-1.51-2.88-4.35a7.9 7.9 0 018.1-8c5.21 0 7.46 3.3 7.46 6.81 0 4.29-2.49 6.36-6.84 7.37a7.29 7.29 0 00-.76-1.1c4.14-.8 6.27-2.81 6.27-6.22 0-3-1.91-5.67-6.13-5.67a4.73 4.73 0 00-.54 0zm-1.73-.23a6.63 6.63 0 00-5.88 6.61c0 1.93.82 3.13 1.69 3.13 2.18 0 3.74-4.8 4.19-9.74zM122 57v12.23h-1.31v-1h-11.38V67h11.35v-8.75h-11.17V57zm-12.34 17a22.51 22.51 0 015.34 2.43l-.68 1.13a23.36 23.36 0 00-5.26-2.5zm-.08 12.48c6.4-2 10.65-5.57 12.81-10.55a7.12 7.12 0 001.17.74c-2.25 4.93-6.65 8.76-12.75 10.8a.61.61 0 01-.25.41zm13.54 11.12H117l.3.09c0 .11-.16.2-.36.21-.48 3.35-1.71 6.34-5.56 8.23a10.82 10.82 0 00-1-.9c3.74-1.8 4.79-4.32 5.2-7.63h-7v-1.21h14.47zm-1.78-5.08h-11v-1.21h11zM109.66 110a22.51 22.51 0 015.36 2.45l-.68 1.13a23.36 23.36 0 00-5.26-2.5zm-.08 12.48c6.4-2 10.65-5.57 12.81-10.55a7.12 7.12 0 001.17.74c-2.25 4.93-6.65 8.76-12.75 10.8a.61.61 0 01-.25.41zm.24 6.22a22.52 22.52 0 011.73 4.79l-1.21.4a24.14 24.14 0 00-1.69-4.81zm13.48.22c0 .16-.23.23-.46.23-1.89 6.36-4.85 10.25-10.48 12.71a8.57 8.57 0 00-.87-1c5.51-2.32 8.34-5.94 10.12-12.49zm-7.77-1.25a30.72 30.72 0 011 5.12l-1.28.2a29.86 29.86 0 00-.93-5.1zm7.85 24.05a.3.3 0 01-.11 0 .41.41 0 01-.27-.11c-1.37.45-3.37 1.19-4.86 1.84v3.33l-1.32.07c.06-.65.09-1.47.09-2.18v-.72c-2 1-3.69 2.2-3.69 3.28s1.25 1.55 3.73 1.55a41.28 41.28 0 004.52-.18v1.2c-1.06.11-2.68.15-4.54.15-3.46 0-5-.83-5-2.67 0-1.58 2.09-3.11 4.79-4.46-.11-1.14-.61-1.69-1.33-1.69-1.31 0-2.68.73-4.3 2.54-.51.55-1.21 1.26-2 2l-.89-.88a12.65 12.65 0 004.54-6.65h-4V147h4.34a23.83 23.83 0 00.48-2.58l1.77.22c0 .18-.18.29-.45.33-.13.71-.29 1.34-.45 2a24.15 24.15 0 006.19-1l.22 1.21a27 27 0 01-6.76 1 13.47 13.47 0 01-1.29 3 4.73 4.73 0 012.89-1.17c1.23 0 2 .88 2.24 2.34 1.51-.69 3.42-1.43 4.86-2zm-5.67 21.59a7.75 7.75 0 001.58 2.07 23.56 23.56 0 002.83-1.89l1.08.79a.33.33 0 01-.36.09 30.89 30.89 0 01-2.76 1.66 10.74 10.74 0 004.18 1.74 3.66 3.66 0 00-.74 1 9.77 9.77 0 01-7-5.45h-2.32v3.58l4.12-.59v1c-2.42.43-5 .86-6.59 1.11a.26.26 0 01-.22.26l-.52-1.3c.58-.07 1.28-.18 2-.29v-3.74h-2.5v-1.06h3.44v-2h-2.83v-1.06h2.83v-1.86h-3.49v1c0 3.09-.26 7.51-2.15 10.5a5.56 5.56 0 00-1.06-.62c1.84-2.9 2-6.95 2-9.88v-5.47H123v4.39h-2.73.3c0 .13-.12.22-.36.25v1.59h3.13v1.06h-3.13v2h3.89v1.06zm-7.15-9.31v2.23h11.18V164zm5 3.33c0 .13-.11.22-.35.25v1.59H119v-1.86h-3.8zm-.35 2.9v2H119v-2zM115 186.9h-5.41v9.86h-1.19v-15.95h6.6zm-1.16-5.14h-4.25v1.59h4.25zm-4.25 4.18h4.25v-1.69h-4.25zm11.22 6.3h-2.55v4.16h-1.1v-4.16h-2.76a6 6 0 01-2.48 4.33 3.92 3.92 0 00-.81-.76 4.73 4.73 0 002.21-3.57H111v-1h2.4v-2.11h-2v-1h9.1v1h-2.16v2.11h2.55zm-6.37-1h2.72v-2.11h-2.72zm9-10.41v14.3c0 1.55-.68 1.62-3.51 1.62a4.49 4.49 0 00-.4-1.24h1.66c.95 0 1.06 0 1.06-.41v-8.2h-5.56v-6.1zm-1.19.95h-4.39v1.59h4.39zm-4.39 4.2h4.39v-1.71h-4.39zm-4.46 12.81c0 .22-.2.34-.56.4-.14 2.09-.32 6.86-.32 9.52s1.33 4 3.6 4 4.43-1.1 6.48-3.42a7 7 0 00.81 1.06 9.74 9.74 0 01-7.31 3.65c-3.27 0-4.95-1.89-4.95-5.29 0-2.27.16-7.86.29-10.07zm-5.06 19.66c1.35-.06 12.44-.85 14.78-.87v1.36h-.66a5.16 5.16 0 00-3.08.92c-2.7 1.62-5.31 4.51-5.31 6.84 0 2.52 1.76 4 6.23 4.59l-.6 1.26c-5.11-.74-7-2.65-7-5.85 0-2.54 2.5-5.62 5.8-7.69-1.91.13-7.29.54-9.62.76a.52.52 0 01-.39.28zm2.23 18c0 .16-.23.27-.48.29a29.1 29.1 0 00-.34 4.48c0 .67 0 1.32.07 1.89.21 3.06 1.46 4.92 2.84 4.9.72 0 1.66-1.84 2.31-3.85a6.51 6.51 0 001 .77c-.83 2.43-1.87 4.41-3.36 4.45-2.29 0-3.88-2.74-4.13-6.2 0-.68-.07-1.44-.07-2.25a43 43 0 01.27-4.84zm11.94 8.37a9 9 0 00-4.53-6.77l.79-1a9.87 9.87 0 015.07 7.33zM109 254.81c1.12.07 2.61.07 3.84.07h2.48v-2.5l1.82.09c0 .22-.18.33-.49.38v2a35.94 35.94 0 006-.7l.16 1.19a37.71 37.71 0 01-6.14.68c0 1.08 0 2.2.07 3.31a29.51 29.51 0 005.08-.7l.14 1.17a33.49 33.49 0 01-5.2.63l.14 3a20 20 0 015.3 2.81l-.79 1.1a17.32 17.32 0 00-4.47-2.65v.85c0 1.71-1 2.7-3.22 2.7s-4-.94-4-2.63 2-2.68 4-2.68a7.93 7.93 0 011.89.21c0-.77-.05-1.71-.07-2.68h-1.74c-3.08 0-4-.49-4-1.54 0-.68.52-1.24 1.68-2l.86.56c-.81.45-1.24.85-1.24 1.21 0 .54.85.65 3.13.65h1.21l-.11-3.33h-6.36zm6.67 9.38a7.52 7.52 0 00-2-.29c-1.37 0-2.76.56-2.76 1.64s1.27 1.58 2.83 1.58 2-.63 2-1.89zm.74 8.81c0-.4-.07-2.36-.11-2.81l1.86.07c0 .15-.15.33-.47.38v2.32c2.22-.07 4.54-.12 5.89-.14v1.24c-1.53 0-3.71 0-5.85.07 0 1.41.07 2.7.12 3.69a6.2 6.2 0 01.22 1.9 7.49 7.49 0 01-.18 1.74c-.47 2.11-2 4-5.18 5.22a11 11 0 00-.92-1c2.75-1 4.23-2.49 4.68-4.2a2.26 2.26 0 01-1.85 1 3.08 3.08 0 01-3-3.16 3.31 3.31 0 013.24-3.36 2.65 2.65 0 011.68.56c0-.31 0-1.52-.08-2.29-1.87 0-7.56.23-8.3.27v-1.19l4.1-.11zm.34 6.32c0-.7 0-2.34-1.84-2.34a2.17 2.17 0 00-2.14 2.28 2 2 0 002 2.09 1.94 1.94 0 001.98-2.04zm7.49 11.92a2.52 2.52 0 11-2.52-2.52 2.52 2.52 0 012.52 2.52zm-.67 0a1.86 1.86 0 10-1.85 1.87 1.84 1.84 0 001.85-1.87zM63.61 4.18a17.76 17.76 0 01-3.49.72v3.44a13.46 13.46 0 014.07-.83c3.06 0 5 1.66 5 4.19a4 4 0 01-4.23 4.24 4.19 4.19 0 01-3.51-1.73 7.83 7.83 0 00.65-.94 3.44 3.44 0 002.88 1.48 2.81 2.81 0 002.92-3.05c0-1.74-1.28-3.11-3.69-3.09a12.87 12.87 0 00-4.06.86v4a2.7 2.7 0 01-2.83 2.86 2.8 2.8 0 01-3-2.77 4.66 4.66 0 012.25-3.46 13.05 13.05 0 012.4-1.29V5c-1.44.12-2.89.14-4.33.12V3.89c1.58 0 3 0 4.34-.11V.41l1.81.11c0 .22-.19.34-.5.38 0 .7 0 1.77-.07 2.77a13.53 13.53 0 003.24-.75zm-4.68 9.2V9.96A11.22 11.22 0 0057.08 11a3.55 3.55 0 00-1.64 2.47 1.66 1.66 0 001.84 1.71 1.62 1.62 0 001.65-1.8zm10.18-7.06A14.82 14.82 0 0065 3.73l.63-1.06a16.82 16.82 0 014.27 2.59zM69.65 21h-12.1a14.55 14.55 0 01-3 4.13 6.58 6.58 0 00-1-.74A14.15 14.15 0 0057.44 18l1.56.4c0 .12-.18.19-.4.19-.16.47-.34.94-.52 1.39h11.6zm-13 6.34c1.15.63 2.4 1.41 3.58 2.22a15.45 15.45 0 002.22-3l1.4.54c-.05.14-.25.18-.43.16a16.24 16.24 0 01-2.23 3 24 24 0 013.37 2.86l-1 .92a22.51 22.51 0 00-3.26-2.92 21.12 21.12 0 01-5.45 3.71A6 6 0 0054 34a18.77 18.77 0 005.35-3.51 39.42 39.42 0 00-3.58-2.27zm-1.39-2.2h11.83c0 4.81.29 8.38 1.73 8.38.38 0 .47-1.05.5-2.63a3.88 3.88 0 00.87.7c-.13 2.31-.38 3.12-1.44 3.12-2.38 0-2.78-3.41-2.88-8.5H55.22zm12.66-1.56H57.31v-1.01h10.57zM57.6 37.35c-.05.2-.23.31-.59.29a43.25 43.25 0 00-1 8.1 19.86 19.86 0 00.24 3.57c.34-.89 1.11-2.78 1.37-3.41l.75.8c-.74 1.81-1.28 2.84-1.53 3.65a3.07 3.07 0 00-.14.85 1.67 1.67 0 00.09.55l-1.24.25a19.67 19.67 0 01-.79-6.2 52.16 52.16 0 011-8.76zm11.47 13.16q-1 .06-2 .06a25.85 25.85 0 01-3.35-.2c-2.21-.33-3.24-1.55-3.24-3a5.51 5.51 0 011.69-3.48l1.17.51a4.24 4.24 0 00-1.53 2.83c0 2.08 3.06 2.08 4.94 2.08.75 0 1.56 0 2.32-.09zm-8.34-11a58.61 58.61 0 007.85-.68l.11 1.26a66.76 66.76 0 01-7.92.66zm.71 15.62h1.22c0 3.23.41 10.21 7.69 14.54a5.9 5.9 0 00-1 1A16 16 0 0162 60.21c-1.3 4.81-3.64 8.41-7.42 10.5a8.19 8.19 0 00-1-.92c4-2.07 6.3-5.91 7.44-11.14l.74.18a18 18 0 01-.24-2.45h-4.64v-1.23h4.56zm-4.15 27.51a12.21 12.21 0 01-.52-3.38 31.56 31.56 0 01.62-6l1.8.31c-.08.23-.29.29-.53.31a26.26 26.26 0 00-.61 5.24 6.42 6.42 0 00.06 1 30.16 30.16 0 011.4-2.79 7.72 7.72 0 00.7.79c-1.33 2.4-1.73 3.08-1.73 3.84a1.93 1.93 0 00.06.45zM67 72.85c0 .21-.17.3-.47.39.12 1.57.3 4.18.3 6.25 0 3.48-1.27 6.61-6.69 8.86a10.69 10.69 0 00-.9-1c4.91-1.87 6.23-4.84 6.23-7.79 0-2.22-.22-4.83-.42-6.75zm-4.09 20.44a.45.45 0 01-.45.29c-.65 5.6-2.52 10.48-5.51 10.48-1.51 0-2.88-1.51-2.88-4.35a7.9 7.9 0 018.1-7.95c5.21 0 7.46 3.3 7.46 6.81 0 4.29-2.49 6.36-6.84 7.37a7.29 7.29 0 00-.76-1.1c4.14-.8 6.27-2.81 6.27-6.22 0-3-1.91-5.67-6.13-5.67a4.73 4.73 0 00-.54 0zm-1.73-.23a6.63 6.63 0 00-5.88 6.61c0 1.93.82 3.13 1.69 3.13 2.18 0 3.74-4.8 4.19-9.74zm-5.02 21.35a19.66 19.66 0 01-2.32 3.08 10.77 10.77 0 00-.65-1.14 22.8 22.8 0 004.66-8.21l1.48.49c-.07.13-.2.18-.41.18a34.16 34.16 0 01-1.71 3.8l.5.14c0 .13-.13.2-.34.24v11.76h-1.21zm14.17-2.16h-5.78V115h5.35v1.14h-5.35v2.9h5.6v1.15h-5.6v4.52h-1.22v-12.46h-1.68a18.55 18.55 0 01-2.54 4.07 7.24 7.24 0 00-.91-.83 21.41 21.41 0 003.7-7.24l1.55.45a.43.43 0 01-.43.2c-.25.72-.52 1.46-.83 2.18h8.14zm-15.99 30.48v-7.84h6.54v7.68h-1.21v-.74h-4.18v.9zm5.33-6.66h-4.18v4.59h4.18zm6.9-9.42V133h-9.33v-6.34zm-1.23 5.18v-4h-6.93v4zm-2.54 3.06h6.76v7.69h-1.21v-.77H64v.9h-1.2zm1.2 5.77h4.37v-4.59H64zm1.24 7.1h.54a3.6 3.6 0 013.9 3.6c0 2.34-1.6 3.71-4.07 3.71a6.08 6.08 0 01-3.6-1.3 7.19 7.19 0 00.36-1.08 5.57 5.57 0 003.24 1.19 2.44 2.44 0 002.76-2.54c0-1.33-.92-2.38-2.83-2.38a21.76 21.76 0 00-5.92 1.5c.84 2.86 2 7 2.7 9.67l-1.39.3c-.56-2.59-1.74-6.87-2.52-9.52-1.15.41-2.77 1-3.74 1.31a.55.55 0 01-.31.4l-.58-1.44c1.16-.36 3-1 4.29-1.42-.54-1.84-1-3.46-1.37-4.51l1.86-.34c0 .24-.08.33-.38.49.39 1.38.72 2.56 1.11 3.92a31.3 31.3 0 015.19-1.45 16.26 16.26 0 00-3.22-2.74l.82-.81a15.28 15.28 0 013.66 3.06zm4.23 16.4a.46.46 0 01-.24.16 15.34 15.34 0 01-4.23 5.76 8.39 8.39 0 00-1.1-.73 10.93 10.93 0 003.58-4.47H54.56v-1.22h13.57l.2-.09zm-7 3.28c0 .14-.18.27-.41.3-.52 4.25-2 8.3-5.69 10.45a8.49 8.49 0 00-1.06-.83c3.67-2 5-5.78 5.42-10.12zm-1.34 13.3l1.85.14c0 .2-.18.33-.48.38V196h-1.37zm7.99 24.86H63l.3.09c0 .11-.16.2-.36.21-.48 3.35-1.71 6.34-5.56 8.23a10.82 10.82 0 00-1-.9c3.74-1.8 4.79-4.32 5.2-7.63h-7v-1.21h14.54zm-1.78-5.08H56.29v-1.21h11.05zm1.93 18.6a.37.37 0 01-.31.12 2.13 2.13 0 01-.25 0 34.2 34.2 0 01-4 3.33 3.36 3.36 0 01.4.16.58.58 0 01-.31.2v7.81h-1.1v-7.54a46.57 46.57 0 01-5.92 3.44 6.2 6.2 0 00-.65-.85A36 36 0 0068 218.23zm-2.54 17.26a.42.42 0 01-.23.2 28.25 28.25 0 01-3.61 6.19 64.6 64.6 0 016.59 6.1l-1.09 1a59 59 0 00-6.32-6.05 28.58 28.58 0 01-6.94 6.05 7 7 0 00-.93-1 25.78 25.78 0 0010.55-11.77h-8.84v-1.23h9.54l.24-.09zM67 262.1a64.73 64.73 0 00-6.32-2.93v9h-1.4v-15.65l1.81.11c0 .2-.16.33-.46.38v5.26l.27-.38a63 63 0 016.77 3zm2.38 15.62a.3.3 0 01-.11 0 .41.41 0 01-.27-.11c-1.37.45-3.37 1.19-4.86 1.84v3.33l-1.32.07c.06-.65.09-1.47.09-2.18v-.72c-2 1-3.69 2.2-3.69 3.28s1.25 1.55 3.73 1.55a41.28 41.28 0 004.52-.18v1.2c-1.06.11-2.68.15-4.54.15-3.46 0-5-.83-5-2.67 0-1.58 2.09-3.11 4.79-4.46-.11-1.14-.61-1.69-1.33-1.69-1.31 0-2.68.73-4.3 2.54-.51.55-1.21 1.26-2 2l-.89-.88a12.65 12.65 0 004.54-6.65h-4V273h4.34a23.83 23.83 0 00.48-2.58l1.77.22c0 .18-.18.29-.45.33-.13.71-.29 1.34-.45 2a24.15 24.15 0 006.19-1l.22 1.21a27 27 0 01-6.76 1 13.47 13.47 0 01-1.29 3.05 4.73 4.73 0 012.93-1.23c1.23 0 2 .88 2.24 2.34 1.51-.69 3.42-1.43 4.86-2zm-9.04 21.64c0 .13-.16.22-.38.24-.49 2.57-1.53 4.32-5.78 5.18a3.56 3.56 0 00-.67-1.06c3.89-.7 4.87-2.11 5.23-4.52zm4 3.48c0 .52.15.63 1 .63h2.86c.76 0 .9-.35 1-2.61a3.77 3.77 0 001.12.5c-.15 2.61-.49 3.26-2 3.26H65.2c-1.66 0-2.09-.38-2.09-1.78v-4.14h-7v-10h11.52v10h-3.3zm-7-13.11v2h9.08v-2zm0 2.95v2h9.08v-2zm0 3v2h9.08v-2zM54 311.06c.41-.09 1-.25 1.85-.52a29.45 29.45 0 018-1.73c3 0 5.6 1.49 5.6 5.27 0 4.47-4.41 6.2-10.49 6.81a6.06 6.06 0 00-.47-1.22c5.56-.53 9.56-2 9.56-5.51 0-2.83-1.95-4.05-4.32-4.05-2.58 0-7.21 1.49-8.84 2.19a.51.51 0 01-.33.42zm3.24 14.42c0 .16-.2.28-.47.32a38.69 38.69 0 00-.93 7.44 18.71 18.71 0 00.18 3c.39-.81 1.27-2.52 1.83-3.56l.83.84c-1.31 2.34-2.14 3.84-2.14 4.54a2.5 2.5 0 00.14.74l-1.26.25a17.68 17.68 0 01-.83-5.8 46.42 46.42 0 01.9-8.08zm2.67 4.08c1.44 0 3.56 0 4.86-.12-.11-2.09-.24-4.58-.29-4.95l1.85.07c0 .2-.19.36-.48.41 0 1 .12 2.83.2 4.4a21.81 21.81 0 003.52-.56l.13 1.28a27.53 27.53 0 01-3.62.48v1.46c0 3.89-.86 6.64-4.34 8.37a6.7 6.7 0 00-1-.9c3.33-1.62 4-4 4-7.36v-1.5c-1.2.08-3.27.13-4.88.13zm-2.31 13.79c-.05.2-.23.31-.59.29a43.25 43.25 0 00-1 8.1 19.86 19.86 0 00.24 3.57c.34-.89 1.11-2.78 1.37-3.41l.75.8c-.74 1.81-1.28 2.84-1.53 3.65a3.07 3.07 0 00-.14.85 1.67 1.67 0 00.09.55l-1.28.24a19.67 19.67 0 01-.79-6.2 52.16 52.16 0 011-8.76zm11.47 13.16q-1 .06-2 .06a25.85 25.85 0 01-3.35-.2c-2.21-.33-3.24-1.55-3.24-3a5.51 5.51 0 011.69-3.48l1.17.51a4.24 4.24 0 00-1.53 2.83c0 2.08 3.06 2.08 4.94 2.08.75 0 1.56 0 2.32-.09zm-8.34-11a58.61 58.61 0 007.85-.68l.11 1.26a66.76 66.76 0 01-7.92.66zM15.14 4.16a34.94 34.94 0 01-6 1c.7 2.45 1.46 3.91 3.4 4.75L11.67 11a6.18 6.18 0 00-4-1.24L7.44 8.7a17.45 17.45 0 012 .27 9.69 9.69 0 01-1.61-3.73c-.81.07-1.91.11-3 .11s-3.08 0-4.23-.06V4.07h4.25c.92 0 2 0 2.68-.09-.21-1-.41-2.3-.63-3.69h1.93c0 .21-.18.34-.47.41.11 1 .29 2.16.49 3.15a30.05 30.05 0 006-1.06zM11.92 16H8.57c-3.76 0-6.43-1.15-6.43-3.56a4.48 4.48 0 011.62-3l1 .78a3.15 3.15 0 00-1.3 2.21c0 1.78 2.3 2.36 5.17 2.36 1.56 0 2.48 0 3.4-.09zm-.81 7.92a7 7 0 01-.18.69c3.17.56 4.34 2.54 4.34 4.66 0 2.86-2.45 4.59-6.95 5.1a7.16 7.16 0 00-.49-1.08c3.73-.36 6.12-1.66 6.12-4v-.13c-.09-2.09-1.49-3.11-3.42-3.44A14.21 14.21 0 017 31a4.38 4.38 0 00.47 1l-1.06.66a4.19 4.19 0 01-.44-.9 5.77 5.77 0 01-3.4 1.35 2.15 2.15 0 01-2.23-2.38c0-2.48 2.05-4.47 4.67-5.51v-3h-4L1 21h4c0-.83.06-1.84.09-2.69l1.8.13c0 .18-.19.32-.46.36-.06.67-.09 1.49-.15 2.16a40.71 40.71 0 007.22-.76l.16 1.23a43 43 0 01-7.43.7c0 .94-.06 1.84 0 2.68a9.56 9.56 0 012.7-.41h.74c.07-.29.13-.56.18-.85zm-5.53 6.72a20.87 20.87 0 01-.52-4.21c-2 .86-3.49 2.36-3.49 4.1 0 1.06.59 1.42 1.24 1.39a4.93 4.93 0 002.77-1.28zm3.69-5.06a8.46 8.46 0 00-3 .43 17.91 17.91 0 00.41 3.71 11.69 11.69 0 002.59-4.14zm4.49 19.62l1.6.11c0 .13-.11.22-.36.23v7.17h-1.24v-1.13H2.05v1.18H.85V45.2l1.58.09c0 .15-.13.24-.38.25v4.85h5.12V44H1.53v-6.24l1.59.11c0 .11-.13.2-.38.24v4.7h4.43v-6.72l1.6.11c0 .12-.13.21-.36.25v6.36H13v-5.06l1.6.1c0 .13-.11.22-.36.26V44H8.41v6.39h5.35zm-7.28 9.68c0 .22-.25.31-.59.33-.2 1-.52 2.75-.74 3.83.81-.09 1.55-.16 2-.16 2.73 0 3.67 1.78 3.67 4.48a14.1 14.1 0 01-.61 4C9.65 69.23 8.5 70.12 7 70.12c-.73 0-1.71-.31-3.25-1.57a7.3 7.3 0 00.48-1.1c1.44 1.12 2.2 1.37 2.76 1.37 1 0 1.63-.65 2-1.8a13.54 13.54 0 00.58-3.69c0-2.06-.68-3.28-2.48-3.26a20.31 20.31 0 00-2.2.18A34.51 34.51 0 011.19 70L0 69.39a29.19 29.19 0 003.58-9c-.91.11-2.23.27-3.2.43l-.11-1.26 3.56-.41c.28-1.31.56-2.94.78-4.52zm8.34 8.66a10.79 10.79 0 00-4.05-6.15l1-.76A11.48 11.48 0 0116.11 63zM3.24 73.48c0 .16-.2.28-.47.32a38.69 38.69 0 00-.93 7.44 18.71 18.71 0 00.18 3c.39-.81 1.27-2.52 1.83-3.56l.83.84c-1.31 2.34-2.14 3.84-2.14 4.54a2.5 2.5 0 00.14.74l-1.26.25a17.68 17.68 0 01-.83-5.8 46.42 46.42 0 01.9-8.08zm2.67 4.08c1.44 0 3.56 0 4.86-.12-.11-2.09-.24-4.58-.29-5l1.85.07c0 .2-.19.36-.48.41 0 1 .12 2.83.2 4.4a21.81 21.81 0 003.52-.56l.13 1.28a27.53 27.53 0 01-3.62.48v1.46c0 3.89-.86 6.64-4.34 8.37a6.7 6.7 0 00-1-.9c3.33-1.62 4-4 4-7.36v-1.5c-1.2.08-3.27.13-4.88.13zM1 92.81c1.12.07 2.61.07 3.84.07h2.48v-2.5l1.82.09c0 .22-.18.33-.49.38v2a35.94 35.94 0 006-.7l.16 1.19a37.71 37.71 0 01-6.24.66c0 1.08 0 2.2.07 3.31a29.51 29.51 0 005.08-.7l.14 1.17a33.49 33.49 0 01-5.2.63l.14 3a20 20 0 015.3 2.81l-.79 1.1a17.32 17.32 0 00-4.47-2.65v.85c0 1.71-1 2.7-3.22 2.7s-4-.94-4-2.63 2-2.68 4-2.68a7.93 7.93 0 011.89.21c0-.77 0-1.71-.07-2.68H5.7c-3.08 0-3.95-.49-3.95-1.54 0-.68.52-1.24 1.68-2l.86.56c-.81.45-1.24.85-1.24 1.21 0 .54.85.65 3.13.65h1.21L7.31 94H1zm6.67 9.38a7.52 7.52 0 00-2-.29c-1.37 0-2.76.56-2.76 1.64s1.27 1.58 2.83 1.58 2-.63 2-1.89zm-2.27 6.6c0 .22-.2.34-.56.4-.14 2.09-.32 6.86-.32 9.52s1.33 4 3.6 4 4.43-1.1 6.48-3.42a7 7 0 00.81 1.06A9.74 9.74 0 018.1 124c-3.27 0-4.95-1.89-4.95-5.29 0-2.27.16-7.86.29-10.07zm4.88 27.13a19.08 19.08 0 015 2.61l-.72 1a16.13 16.13 0 00-4.23-2.53c.06 1.28.13 3.42-2.66 3.42-1.76 0-3.46-.69-3.46-2.43 0-1.44 1.55-2.41 3.33-2.43a9.21 9.21 0 011.66.12v-.95c-.17-1.87-.27-4.9-.27-7l1.53.09c0 .15-.13.29-.38.31v2.72a33.49 33.49 0 004.7-.52l.09 1.09a37.09 37.09 0 01-4.77.47c0 1.06.09 1.95.15 2.92zm-2.56.6c-1.74 0-2.52.79-2.52 1.58 0 .94 1 1.4 2.4 1.4 1.67 0 1.67-1.31 1.67-1.87v-.92a5.66 5.66 0 00-1.55-.19zm-5.94 14.12a41.54 41.54 0 017.46-1.47c2.7 0 4.28 1.44 4.28 4.1v.15c0 3.27-2.61 5.67-7.78 7.06a6.59 6.59 0 00-.81-1.1c4.61-1.1 7.22-3.26 7.22-6a2.65 2.65 0 00-3-3 25 25 0 00-6.51 1.42c0 .15-.17.33-.35.42zm2.52-6.23a33.31 33.31 0 017.24 1.41l-.38 1.26A33.86 33.86 0 004 145.64zm11.94 20.83a2.52 2.52 0 11-2.52-2.52 2.52 2.52 0 012.52 2.52zm-.67 0a1.86 1.86 0 10-1.85 1.87 1.84 1.84 0 001.85-1.87z" fill="#333" data-name="レイヤー 1"/></g></svg>